# https://github.com/mikedh/trimesh
v -0.02564000 0.01000000 -0.02353144
v -0.02364000 0.01000000 -0.02353144
v -0.02364000 0.01000000 -0.02843144
v -0.02364000 0.01000000 -0.01543144
v -0.02364000 0.01000000 -0.02033144
v -0.02564000 0.01000000 -0.02033144
v -0.01364000 0.01000000 -0.02353144
v -0.01164000 0.01000000 -0.02353144
v -0.00779719 0.01000000 -0.02798772
v -0.00725680 0.01000000 -0.02098855
v -0.01164000 0.01000000 -0.02033144
v -0.01364000 0.01000000 -0.02033144
v -0.01364000 0.01000000 -0.01543144
v -0.01364000 0.01000000 -0.02843144
v -0.01918880 0.01000000 -0.03774637
v -0.04134502 0.01000000 -0.00444318
v -0.02175592 0.01000000 0.01827834
v -0.00663965 0.01000000 0.02540865
v -0.02118550 0.01000000 -0.00496650
v -0.02364000 0.00820000 -0.02331708
v -0.02364000 -0.00300000 -0.02843144
v -0.02364000 0.00900000 -0.02353144
v -0.02364000 -0.00300000 -0.01543144
v -0.02364000 0.00820000 -0.02054580
v -0.02364000 0.00900000 -0.02033144
v -0.02364000 0.00761436 -0.02273144
v -0.02364000 0.00740000 -0.02193144
v -0.02364000 0.00761436 -0.02113144
v 0.02364003 0.01000000 -0.02843144
v 0.02364003 0.01000000 -0.02353144
v 0.02564003 0.01000000 -0.02353144
v 0.02118552 0.01000000 -0.00496650
v 0.00663968 0.01000000 0.02540865
v 0.02175595 0.01000000 0.01827834
v 0.02564003 0.01000000 -0.02033144
v 0.02364003 0.01000000 -0.02033144
v 0.04134504 0.01000000 -0.00444318
v 0.02364003 0.01000000 -0.01543144
v 0.01364003 0.01000000 -0.01543144
v 0.01364003 0.01000000 -0.02033144
v 0.01164003 0.01000000 -0.02033144
v 0.00728043 0.01000000 -0.02096140
v 0.00776989 0.01000000 -0.02796431
v 0.01164003 0.01000000 -0.02353144
v 0.01364003 0.01000000 -0.02353144
v 0.01364003 0.01000000 -0.02843144
v 0.01918883 0.01000000 -0.03774637
v 0.01364003 0.00900000 -0.02353144
v 0.01364003 -0.00300000 -0.02843144
v 0.01364003 0.00740000 -0.02193144
v 0.01364003 -0.00300000 -0.01543144
v 0.01364003 0.00761436 -0.02273144
v 0.01364003 0.00820000 -0.02331708
v 0.01364003 0.00761436 -0.02113144
v 0.01364003 0.00820000 -0.02054580
v 0.01364003 0.00900000 -0.02033144
v -0.00399999 0.00000000 -0.02473484
v -0.00779719 0.00000000 -0.02798772
v -0.00725680 0.00000000 -0.02098855
v 0.00400001 0.00000000 -0.02473484
v 0.00728043 0.00000000 -0.02096140
v 0.00776989 0.00000000 -0.02796431
v -0.00229609 0.00000000 -0.00910675
v -0.00424263 0.00000000 -0.01040739
v -0.02118550 0.00000000 -0.00496650
v 0.00424265 0.00000000 -0.01040739
v 0.00229611 0.00000000 -0.00910675
v 0.00400001 0.00000000 0.01435624
v 0.00000001 0.00000000 -0.00865003
v -0.00399999 0.00000000 0.01435624
v -0.00399999 0.00000000 0.02235624
v -0.00663965 0.00000000 0.02540865
v 0.00400001 0.00000000 0.02235624
v 0.00663968 0.00000000 0.02540865
v 0.02118552 0.00000000 -0.00496650
v 0.00554329 0.00000000 -0.01235393
v 0.00229611 0.00000000 -0.02019331
v 0.00000001 0.00000000 -0.02065003
v -0.00229609 0.00000000 -0.02019331
v -0.00424263 0.00000000 -0.01889267
v -0.00554326 0.00000000 -0.01235393
v -0.00599999 0.00000000 -0.01465003
v -0.00554326 0.00000000 -0.01694613
v 0.00424265 0.00000000 -0.01889267
v 0.00554329 0.00000000 -0.01694613
v 0.00600001 0.00000000 -0.01465003
v 0.01918883 -0.01000000 -0.03774637
v 0.00400001 -0.01000000 -0.02473484
v 0.04134504 -0.01000000 -0.00444318
v 0.02175595 -0.01000000 0.01827834
v 0.00663968 -0.01000000 0.02540865
v -0.00663965 -0.01000000 0.02540865
v -0.02175592 -0.01000000 0.01827834
v -0.04134502 -0.01000000 -0.00444318
v -0.01918880 -0.01000000 -0.03774637
v -0.00399999 -0.01000000 -0.02473484
v -0.00399999 -0.01000000 0.01435624
v -0.00599999 -0.01000000 -0.01465003
v -0.00554326 -0.01000000 -0.01694613
v 0.00229611 -0.01000000 -0.02019331
v 0.00000001 -0.01000000 -0.02065003
v -0.00229609 -0.01000000 -0.02019331
v -0.00424263 -0.01000000 -0.01889267
v 0.00424265 -0.01000000 -0.01040739
v 0.00554329 -0.01000000 -0.01235393
v 0.00600001 -0.01000000 -0.01465003
v 0.00554329 -0.01000000 -0.01694613
v -0.00554326 -0.01000000 -0.01235393
v -0.00424263 -0.01000000 -0.01040739
v -0.00229609 -0.01000000 -0.00910675
v 0.00400001 -0.01000000 0.01435624
v 0.00000001 -0.01000000 -0.00865003
v 0.00229611 -0.01000000 -0.00910675
v -0.00399999 -0.01000000 0.02235624
v 0.00400001 -0.01000000 0.02235624
v 0.00424265 -0.01000000 -0.01889267
v -0.01364000 -0.00300000 -0.02843144
v -0.01364000 0.00740000 -0.02193144
v -0.01364000 0.00761436 -0.02113144
v -0.01364000 -0.00300000 -0.01543144
v -0.01364000 0.00820000 -0.02054580
v -0.01364000 0.00761436 -0.02273144
v -0.01364000 0.00820000 -0.02331708
v -0.01364000 0.00900000 -0.02353144
v -0.01364000 0.00900000 -0.02033144
v 0.02364003 -0.00300000 -0.02843144
v 0.02364003 0.00820000 -0.02054580
v 0.02364003 0.00761436 -0.02113144
v 0.02364003 -0.00300000 -0.01543144
v 0.02364003 0.00740000 -0.02193144
v 0.02364003 0.00761436 -0.02273144
v 0.02364003 0.00820000 -0.02331708
v 0.02364003 0.00900000 -0.02353144
v 0.02364003 0.00900000 -0.02033144
v 0.02564003 0.00900000 -0.02033144
v 0.02564003 0.00900000 -0.02353144
v 0.02564003 0.00820000 -0.02331708
v 0.02564003 0.00761436 -0.02273144
v 0.02564003 0.00740000 -0.02193144
v 0.02564003 0.00761436 -0.02113144
v 0.02564003 0.00820000 -0.02054580
v 0.01164003 0.00900000 -0.02353144
v 0.01164003 0.00900000 -0.02033144
v 0.01164003 0.00820000 -0.02054580
v 0.01164003 0.00761436 -0.02113144
v 0.01164003 0.00740000 -0.02193144
v 0.01164003 0.00761436 -0.02273144
v 0.01164003 0.00820000 -0.02331708
v -0.02564000 0.00900000 -0.02353144
v -0.02564000 0.00900000 -0.02033144
v -0.02564000 0.00820000 -0.02054580
v -0.02564000 0.00761436 -0.02113144
v -0.02564000 0.00740000 -0.02193144
v -0.02564000 0.00761436 -0.02273144
v -0.02564000 0.00820000 -0.02331708
v -0.01164000 0.00900000 -0.02033144
v -0.01164000 0.00900000 -0.02353144
v -0.01164000 0.00820000 -0.02331708
v -0.01164000 0.00761436 -0.02273144
v -0.01164000 0.00740000 -0.02193144
v -0.01164000 0.00761436 -0.02113144
v -0.01164000 0.00820000 -0.02054580
f 1 2 3
f 4 5 6
f 7 8 9
f 9 8 10
f 11 12 13
f 7 9 14
f 14 9 15
f 14 15 3
f 3 15 16
f 3 16 1
f 17 18 16
f 16 18 19
f 8 11 10
f 10 11 13
f 10 13 19
f 19 13 4
f 19 4 16
f 16 4 6
f 16 6 1
f 20 21 22
f 22 21 3
f 22 3 2
f 23 24 4
f 4 24 25
f 4 25 5
f 20 26 21
f 21 26 27
f 21 27 23
f 23 27 28
f 23 28 24
f 29 30 31
f 32 33 34
f 35 36 37
f 37 36 38
f 37 38 39
f 39 40 41
f 34 37 32
f 32 37 39
f 32 39 42
f 42 39 41
f 42 41 43
f 43 41 44
f 44 45 43
f 43 45 46
f 43 46 47
f 47 46 29
f 47 29 37
f 37 29 31
f 37 31 35
f 46 45 48
f 46 48 49
f 50 51 52
f 52 51 49
f 52 49 53
f 53 49 48
f 50 54 51
f 51 54 55
f 51 55 39
f 39 55 56
f 39 56 40
f 57 58 59
f 57 59 60
f 60 59 61
f 60 61 62
f 63 64 65
f 66 67 68
f 68 67 69
f 68 69 70
f 69 63 70
f 70 63 65
f 70 65 71
f 71 65 72
f 71 72 73
f 73 72 74
f 73 74 68
f 68 74 75
f 68 75 66
f 66 75 76
f 77 61 78
f 78 61 59
f 78 59 79
f 79 59 80
f 64 81 65
f 65 81 82
f 65 82 59
f 59 82 83
f 59 83 80
f 77 84 61
f 61 84 85
f 61 85 75
f 75 85 86
f 75 86 76
f 61 75 42
f 42 75 32
f 43 47 62
f 62 47 87
f 62 87 60
f 60 87 88
f 89 87 37
f 37 87 47
f 90 89 34
f 34 89 37
f 34 33 90
f 90 33 74
f 90 74 91
f 75 74 32
f 32 74 33
f 92 91 72
f 72 91 74
f 93 92 17
f 17 92 72
f 17 72 18
f 16 94 17
f 17 94 93
f 15 95 16
f 16 95 94
f 57 96 58
f 58 96 95
f 58 95 9
f 9 95 15
f 88 96 60
f 60 96 57
f 93 94 97
f 98 94 99
f 99 94 95
f 100 101 96
f 96 101 102
f 96 102 95
f 95 102 103
f 95 103 99
f 104 105 89
f 89 105 106
f 89 106 107
f 98 108 94
f 94 108 109
f 94 109 97
f 97 109 110
f 97 110 111
f 111 110 112
f 111 112 113
f 93 97 92
f 92 97 114
f 92 114 91
f 91 114 115
f 91 115 90
f 90 115 111
f 90 111 89
f 89 111 113
f 89 113 104
f 100 96 116
f 116 96 88
f 116 88 107
f 107 88 87
f 107 87 89
f 72 65 18
f 18 65 19
f 10 19 59
f 59 19 65
f 21 117 3
f 3 117 14
f 118 117 119
f 119 117 120
f 119 120 121
f 118 122 117
f 117 122 123
f 117 123 14
f 14 123 124
f 14 124 7
f 121 120 125
f 125 120 13
f 125 13 12
f 120 23 13
f 13 23 4
f 120 117 23
f 23 117 21
f 49 126 46
f 46 126 29
f 127 128 129
f 129 128 130
f 129 130 126
f 130 131 126
f 126 131 132
f 126 132 29
f 29 132 133
f 29 133 30
f 127 129 134
f 134 129 38
f 134 38 36
f 129 51 38
f 38 51 39
f 51 129 49
f 49 129 126
f 35 135 36
f 36 135 134
f 136 133 137
f 137 133 132
f 137 132 138
f 138 132 131
f 138 131 139
f 139 131 130
f 139 130 140
f 140 130 128
f 140 128 141
f 141 128 127
f 141 127 135
f 135 127 134
f 136 31 133
f 133 31 30
f 137 138 136
f 136 138 139
f 136 139 140
f 35 31 135
f 135 31 136
f 135 136 141
f 141 136 140
f 44 142 45
f 45 142 48
f 143 56 144
f 144 56 55
f 144 55 145
f 145 55 54
f 145 54 146
f 146 54 50
f 146 50 147
f 147 50 52
f 147 52 148
f 148 52 53
f 148 53 142
f 142 53 48
f 143 41 56
f 56 41 40
f 142 44 41
f 41 143 142
f 142 143 144
f 142 144 145
f 145 146 142
f 142 146 147
f 142 147 148
f 1 149 2
f 2 149 22
f 150 25 151
f 151 25 24
f 151 24 152
f 152 24 28
f 152 28 153
f 153 28 27
f 153 27 154
f 154 27 26
f 154 26 155
f 155 26 20
f 155 20 149
f 149 20 22
f 150 6 25
f 25 6 5
f 1 6 149
f 149 6 150
f 149 150 151
f 154 155 153
f 153 155 149
f 153 149 152
f 152 149 151
f 11 156 12
f 12 156 125
f 157 124 158
f 158 124 123
f 158 123 159
f 159 123 122
f 159 122 160
f 160 122 118
f 160 118 161
f 161 118 119
f 161 119 162
f 162 119 121
f 162 121 156
f 156 121 125
f 157 8 124
f 124 8 7
f 11 8 156
f 156 8 157
f 156 157 162
f 162 157 158
f 158 159 162
f 162 159 160
f 162 160 161
f 114 97 71
f 71 97 70
f 97 111 70
f 70 111 68
f 111 115 68
f 68 115 73
f 115 114 73
f 73 114 71
f 42 43 61
f 61 43 62
f 9 10 58
f 58 10 59
f 82 98 83
f 83 98 99
f 83 99 80
f 80 99 103
f 80 103 79
f 79 103 102
f 79 102 78
f 78 102 101
f 78 101 77
f 77 101 100
f 77 100 84
f 84 100 116
f 84 116 85
f 85 116 107
f 85 107 86
f 86 107 106
f 86 106 76
f 76 106 105
f 76 105 66
f 66 105 104
f 66 104 67
f 67 104 113
f 67 113 69
f 69 113 112
f 69 112 63
f 63 112 110
f 63 110 64
f 64 110 109
f 64 109 81
f 81 109 108
f 81 108 82
f 82 108 98

