# https://github.com/mikedh/trimesh
v -0.02564000 0.01000000 -0.02353144
v -0.02364000 0.01000000 -0.02353144
v -0.02364000 0.01000000 -0.02843144
v -0.02364000 0.01000000 -0.01543144
v -0.02364000 0.01000000 -0.02033144
v -0.02564000 0.01000000 -0.02033144
v -0.01364000 0.01000000 -0.02353144
v -0.01164000 0.01000000 -0.02353144
v -0.00779719 0.01000000 -0.02798772
v -0.00725680 0.01000000 -0.02098855
v -0.01164000 0.01000000 -0.02033144
v -0.01364000 0.01000000 -0.02033144
v -0.01364000 0.01000000 -0.01543144
v -0.01364000 0.01000000 -0.02843144
v -0.01918880 0.01000000 -0.03774637
v -0.04134502 0.01000000 -0.00444318
v -0.02175592 0.01000000 0.01827834
v -0.00663965 0.01000000 0.02540865
v -0.02118550 0.01000000 -0.00496650
v -0.02364000 0.00530000 -0.02331708
v -0.02364000 -0.00300000 -0.02843144
v -0.02364000 0.00610000 -0.02353144
v -0.02364000 -0.00300000 -0.01543144
v -0.02364000 0.00530000 -0.02054580
v -0.02364000 0.00610000 -0.02033144
v -0.02364000 0.00471436 -0.02273144
v -0.02364000 0.00450000 -0.02193144
v -0.02364000 0.00471436 -0.02113144
v 0.02364003 0.01000000 -0.02843144
v 0.02364003 0.01000000 -0.02353144
v 0.02564003 0.01000000 -0.02353144
v 0.02118552 0.01000000 -0.00496650
v 0.00663968 0.01000000 0.02540865
v 0.02175595 0.01000000 0.01827834
v 0.02564003 0.01000000 -0.02033144
v 0.02364003 0.01000000 -0.02033144
v 0.04134504 0.01000000 -0.00444318
v 0.02364003 0.01000000 -0.01543144
v 0.01364003 0.01000000 -0.01543144
v 0.01364003 0.01000000 -0.02033144
v 0.01164003 0.01000000 -0.02033144
v 0.00728043 0.01000000 -0.02096140
v 0.00776989 0.01000000 -0.02796431
v 0.01164003 0.01000000 -0.02353144
v 0.01364003 0.01000000 -0.02353144
v 0.01364003 0.01000000 -0.02843144
v 0.01918883 0.01000000 -0.03774637
v 0.01364003 0.00610000 -0.02353144
v 0.01364003 -0.00300000 -0.02843144
v 0.01364003 0.00530000 -0.02331708
v 0.01364003 0.00471436 -0.02273144
v 0.01364003 -0.00300000 -0.01543144
v 0.01364003 0.00450000 -0.02193144
v 0.01364003 0.00471436 -0.02113144
v 0.01364003 0.00530000 -0.02054580
v 0.01364003 0.00610000 -0.02033144
v -0.00399999 0.00000000 -0.02473484
v -0.00779719 0.00000000 -0.02798772
v -0.00725680 0.00000000 -0.02098855
v 0.00400001 0.00000000 -0.02473484
v 0.00728043 0.00000000 -0.02096140
v 0.00776989 0.00000000 -0.02796431
v -0.00229609 0.00000000 -0.00910675
v -0.00424263 0.00000000 -0.01040739
v -0.02118550 0.00000000 -0.00496650
v 0.00424265 0.00000000 -0.01040739
v 0.00229611 0.00000000 -0.00910675
v 0.00400001 0.00000000 0.01435624
v 0.00000001 0.00000000 -0.00865003
v -0.00399999 0.00000000 0.01435624
v -0.00399999 0.00000000 0.02235624
v -0.00663965 0.00000000 0.02540865
v 0.00400001 0.00000000 0.02235624
v 0.00663968 0.00000000 0.02540865
v 0.02118552 0.00000000 -0.00496650
v 0.00554329 0.00000000 -0.01235393
v 0.00229611 0.00000000 -0.02019331
v 0.00000001 0.00000000 -0.02065003
v -0.00229609 0.00000000 -0.02019331
v -0.00424263 0.00000000 -0.01889267
v -0.00554326 0.00000000 -0.01235393
v -0.00599999 0.00000000 -0.01465003
v -0.00554326 0.00000000 -0.01694613
v 0.00424265 0.00000000 -0.01889267
v 0.00554329 0.00000000 -0.01694613
v 0.00600001 0.00000000 -0.01465003
v 0.01918883 -0.01000000 -0.03774637
v 0.00400001 -0.01000000 -0.02473484
v 0.04134504 -0.01000000 -0.00444318
v 0.02175595 -0.01000000 0.01827834
v 0.00663968 -0.01000000 0.02540865
v -0.00663965 -0.01000000 0.02540865
v -0.02175592 -0.01000000 0.01827834
v -0.04134502 -0.01000000 -0.00444318
v -0.01918880 -0.01000000 -0.03774637
v -0.00399999 -0.01000000 -0.02473484
v -0.00399999 -0.01000000 0.01435624
v -0.00599999 -0.01000000 -0.01465003
v -0.00554326 -0.01000000 -0.01694613
v 0.00229611 -0.01000000 -0.02019331
v 0.00000001 -0.01000000 -0.02065003
v -0.00229609 -0.01000000 -0.02019331
v -0.00424263 -0.01000000 -0.01889267
v 0.00424265 -0.01000000 -0.01040739
v 0.00554329 -0.01000000 -0.01235393
v 0.00600001 -0.01000000 -0.01465003
v 0.00554329 -0.01000000 -0.01694613
v -0.00554326 -0.01000000 -0.01235393
v -0.00424263 -0.01000000 -0.01040739
v -0.00229609 -0.01000000 -0.00910675
v 0.00400001 -0.01000000 0.01435624
v 0.00000001 -0.01000000 -0.00865003
v 0.00229611 -0.01000000 -0.00910675
v -0.00399999 -0.01000000 0.02235624
v 0.00400001 -0.01000000 0.02235624
v 0.00424265 -0.01000000 -0.01889267
v -0.01364000 -0.00300000 -0.02843144
v -0.01364000 0.00610000 -0.02033144
v -0.01364000 -0.00300000 -0.01543144
v -0.01364000 0.00530000 -0.02054580
v -0.01364000 0.00471436 -0.02113144
v -0.01364000 0.00450000 -0.02193144
v -0.01364000 0.00471436 -0.02273144
v -0.01364000 0.00530000 -0.02331708
v -0.01364000 0.00610000 -0.02353144
v 0.02364003 -0.00300000 -0.02843144
v 0.02364003 0.00530000 -0.02054580
v 0.02364003 -0.00300000 -0.01543144
v 0.02364003 0.00610000 -0.02033144
v 0.02364003 0.00530000 -0.02331708
v 0.02364003 0.00610000 -0.02353144
v 0.02364003 0.00471436 -0.02113144
v 0.02364003 0.00450000 -0.02193144
v 0.02364003 0.00471436 -0.02273144
v 0.02564003 0.00610000 -0.02033144
v 0.02564003 0.00610000 -0.02353144
v 0.02564003 0.00530000 -0.02331708
v 0.02564003 0.00471436 -0.02273144
v 0.02564003 0.00450000 -0.02193144
v 0.02564003 0.00471436 -0.02113144
v 0.02564003 0.00530000 -0.02054580
v 0.01164003 0.00610000 -0.02353144
v 0.01164003 0.00610000 -0.02033144
v 0.01164003 0.00530000 -0.02054580
v 0.01164003 0.00471436 -0.02113144
v 0.01164003 0.00450000 -0.02193144
v 0.01164003 0.00471436 -0.02273144
v 0.01164003 0.00530000 -0.02331708
v -0.02564000 0.00610000 -0.02353144
v -0.02564000 0.00610000 -0.02033144
v -0.02564000 0.00530000 -0.02054580
v -0.02564000 0.00471436 -0.02113144
v -0.02564000 0.00450000 -0.02193144
v -0.02564000 0.00471436 -0.02273144
v -0.02564000 0.00530000 -0.02331708
v -0.01164000 0.00610000 -0.02033144
v -0.01164000 0.00610000 -0.02353144
v -0.01164000 0.00530000 -0.02331708
v -0.01164000 0.00471436 -0.02273144
v -0.01164000 0.00450000 -0.02193144
v -0.01164000 0.00471436 -0.02113144
v -0.01164000 0.00530000 -0.02054580
v -0.01099999 -0.01000000 -0.02565003
v -0.00585628 -0.01000000 -0.01747028
v -0.00476482 -0.01000000 -0.01907115
v 0.01100001 -0.01000000 -0.00365003
v 0.00537057 -0.01000000 -0.01098845
v 0.00405270 -0.01000000 -0.00956813
v 0.00537057 -0.01000000 -0.01831161
v 0.01100001 -0.01000000 -0.02565003
v 0.00405270 -0.01000000 -0.01973194
v 0.00237473 -0.01000000 -0.02070071
v 0.00621124 -0.01000000 -0.01656594
v 0.00650001 -0.01000000 -0.01465003
v 0.00621124 -0.01000000 -0.01273412
v 0.00237473 -0.01000000 -0.00859935
v 0.00048576 -0.01000000 -0.00816821
v -0.01099999 -0.01000000 -0.00365003
v -0.00144637 -0.01000000 -0.00831300
v -0.00324999 -0.01000000 -0.02027920
v -0.00144637 -0.01000000 -0.02098706
v 0.00048576 -0.01000000 -0.02113186
v -0.00324999 -0.01000000 -0.00902087
v -0.00476482 -0.01000000 -0.01022891
v -0.00585628 -0.01000000 -0.01182979
v -0.00642739 -0.01000000 -0.01368126
v -0.00649999 -0.01000000 -0.01465003
v -0.00642739 -0.01000000 -0.01561881
v -0.01099999 -0.06300000 -0.02565003
v -0.01099999 -0.06300000 -0.00365003
v 0.01100001 -0.06300000 -0.02565003
v 0.01100001 -0.06300000 -0.00365003
v -0.00082560 -0.01300000 -0.00820268
v -0.00144637 -0.01300000 -0.00831300
v 0.00505725 -0.01300000 -0.01873346
v 0.00537057 -0.01300000 -0.01831161
v 0.00640652 -0.01300000 -0.01574854
v 0.00567460 -0.01300000 -0.01782005
v 0.00612872 -0.01300000 -0.01681544
v 0.00621124 -0.01300000 -0.01656594
v 0.00429440 -0.01300000 -0.01952940
v 0.00405270 -0.01300000 -0.01973194
v 0.00242358 -0.01300000 -0.02068131
v 0.00340801 -0.01300000 -0.02018497
v 0.00136943 -0.01300000 -0.02100414
v 0.00237473 -0.01300000 -0.02070071
v -0.00144637 -0.01300000 -0.02098706
v -0.00082560 -0.01300000 -0.02109738
v 0.00027588 -0.01300000 -0.02114417
v 0.00048576 -0.01300000 -0.02113186
v -0.00386510 -0.01300000 -0.01987601
v -0.00324999 -0.01300000 -0.02027920
v -0.00292631 -0.01300000 -0.02045405
v -0.00190334 -0.01300000 -0.02086511
v -0.00469270 -0.01300000 -0.01914763
v -0.00476482 -0.01300000 -0.01907115
v -0.00538530 -0.01300000 -0.01828987
v -0.00585628 -0.01300000 -0.01747028
v -0.00592297 -0.01300000 -0.01732739
v -0.00629025 -0.01300000 -0.01628789
v -0.00629025 -0.01300000 -0.01301217
v -0.00642739 -0.01300000 -0.01368126
v -0.00647657 -0.01300000 -0.01409879
v -0.00649999 -0.01300000 -0.01465003
v -0.00647657 -0.01300000 -0.01520127
v -0.00642739 -0.01300000 -0.01561881
v -0.00592297 -0.01300000 -0.01197267
v -0.00585628 -0.01300000 -0.01182979
v -0.00538530 -0.01300000 -0.01101020
v -0.00476482 -0.01300000 -0.01022891
v -0.00469270 -0.01300000 -0.01015243
v -0.00386510 -0.01300000 -0.00942405
v -0.00190334 -0.01300000 -0.00843495
v -0.00292631 -0.01300000 -0.00884601
v -0.00324999 -0.01300000 -0.00902087
v 0.00027588 -0.01300000 -0.00815589
v 0.00048576 -0.01300000 -0.00816821
v 0.00136943 -0.01300000 -0.00829592
v 0.00237473 -0.01300000 -0.00859935
v 0.00242358 -0.01300000 -0.00861875
v 0.00340801 -0.01300000 -0.00911509
v 0.00537057 -0.01300000 -0.01098845
v 0.00505725 -0.01300000 -0.01056660
v 0.00429440 -0.01300000 -0.00977066
v 0.00405270 -0.01300000 -0.00956813
v 0.00612872 -0.01300000 -0.01248462
v 0.00567460 -0.01300000 -0.01148001
v 0.00650001 -0.01300000 -0.01465003
v 0.00640652 -0.01300000 -0.01355153
v 0.00621124 -0.01300000 -0.01273412
v -0.00885455 -0.06300000 -0.01000280
v -0.00748509 -0.06300000 -0.00801880
v -0.00568063 -0.06300000 -0.00642019
v -0.00354604 -0.06300000 -0.00529987
v -0.00120535 -0.06300000 -0.00472294
v 0.00120538 -0.06300000 -0.00472294
v 0.00354606 -0.06300000 -0.00529987
v 0.00568066 -0.06300000 -0.00642019
v 0.00748512 -0.06300000 -0.00801880
v 0.00885457 -0.06300000 -0.01000280
v 0.00970943 -0.06300000 -0.01704319
v 0.01000001 -0.06300000 -0.01465003
v 0.00970943 -0.06300000 -0.01225687
v 0.00885457 -0.06300000 -0.01929726
v 0.00748512 -0.06300000 -0.02128126
v 0.00568066 -0.06300000 -0.02287987
v -0.00354604 -0.06300000 -0.02400019
v -0.00568063 -0.06300000 -0.02287987
v -0.00748509 -0.06300000 -0.02128126
v -0.00885455 -0.06300000 -0.01929726
v -0.00970940 -0.06300000 -0.01704319
v -0.00999999 -0.06300000 -0.01465003
v -0.00970940 -0.06300000 -0.01225687
v 0.00354606 -0.06300000 -0.02400019
v 0.00120538 -0.06300000 -0.02457712
v -0.00120535 -0.06300000 -0.02457712
v 0.00985617 -0.01845436 -0.01634004
v 0.00885457 -0.01845436 -0.01929726
v 0.00942879 -0.01845436 -0.01798143
v 0.00970943 -0.01845436 -0.01704319
v 0.00873015 -0.01845436 -0.01952698
v 0.00778037 -0.01845436 -0.02093223
v 0.00568066 -0.01845436 -0.02287987
v 0.00660676 -0.01845436 -0.02215675
v 0.00748512 -0.01845436 -0.02128126
v 0.00524309 -0.01845436 -0.02316532
v 0.00372858 -0.01845436 -0.02392892
v 0.00354606 -0.01845436 -0.02400019
v 0.00210681 -0.01845436 -0.02442558
v 0.00120538 -0.01845436 -0.02457712
v 0.00042442 -0.01845436 -0.02464102
v -0.00120535 -0.01845436 -0.02457712
v -0.00127017 -0.01845436 -0.02456904
v -0.00292821 -0.01845436 -0.02421170
v -0.00568063 -0.01845436 -0.02287987
v -0.00450202 -0.01845436 -0.02357929
v -0.00354604 -0.01845436 -0.02400019
v -0.00594632 -0.01845436 -0.02269000
v -0.00721955 -0.01845436 -0.02156942
v -0.00885455 -0.01845436 -0.01929726
v -0.00828508 -0.01845436 -0.02024978
v -0.00748509 -0.01845436 -0.02128126
v -0.00911227 -0.01845436 -0.01876904
v -0.00967732 -0.01845436 -0.01716981
v -0.00970940 -0.01845436 -0.01704319
v -0.00996396 -0.01845436 -0.01549809
v -0.00999999 -0.01845436 -0.01465003
v -0.00996396 -0.01845436 -0.01380197
v -0.00970940 -0.01845436 -0.01225687
v -0.00967732 -0.01845436 -0.01213025
v -0.00911227 -0.01845436 -0.01053102
v -0.00748509 -0.01845436 -0.00801880
v -0.00828508 -0.01845436 -0.00905028
v -0.00885455 -0.01845436 -0.01000280
v -0.00721955 -0.01845436 -0.00773064
v -0.00594632 -0.01845436 -0.00661006
v -0.00354604 -0.01845436 -0.00529987
v -0.00450202 -0.01845436 -0.00572077
v -0.00568063 -0.01845436 -0.00642019
v -0.00292821 -0.01845436 -0.00508836
v -0.00127017 -0.01845436 -0.00473103
v -0.00120535 -0.01845436 -0.00472294
v 0.00042442 -0.01845436 -0.00465904
v 0.00120538 -0.01845436 -0.00472294
v 0.00210681 -0.01845436 -0.00487448
v 0.00354606 -0.01845436 -0.00529987
v 0.00372858 -0.01845436 -0.00537114
v 0.00524309 -0.01845436 -0.00613474
v 0.00748512 -0.01845436 -0.00801880
v 0.00660676 -0.01845436 -0.00714331
v 0.00568066 -0.01845436 -0.00642019
v 0.00778037 -0.01845436 -0.00836783
v 0.00873015 -0.01845436 -0.00977308
v 0.00885457 -0.01845436 -0.01000280
v 0.00942879 -0.01845436 -0.01131863
v 0.00970943 -0.01845436 -0.01225687
v 0.00985617 -0.01845436 -0.01296002
v 0.01000001 -0.01845436 -0.01465003
v 0.00705834 -0.01357090 -0.01714390
v 0.00582435 -0.01357090 -0.01935285
v 0.00031773 -0.01357090 -0.02212923
v -0.00219204 -0.01357090 -0.02180784
v -0.00682139 -0.01357090 -0.01773350
v -0.00540451 -0.01357090 -0.00947022
v -0.00337019 -0.01357090 -0.00796564
v 0.00279120 -0.01357090 -0.00770390
v 0.00494579 -0.01357090 -0.00903054
v 0.00989185 -0.01732020 -0.01465003
v 0.00974956 -0.01732020 -0.01632176
v 0.00932680 -0.01732020 -0.01794539
v 0.00769621 -0.01732020 -0.02086428
v 0.00368825 -0.01732020 -0.02382855
v -0.00289654 -0.01732020 -0.02410827
v -0.00714146 -0.01732020 -0.02149457
v -0.00957264 -0.01732020 -0.01714256
v -0.00901371 -0.01732020 -0.01057557
v -0.00588200 -0.01732020 -0.00669703
v -0.00125643 -0.01732020 -0.00483832
v 0.00208402 -0.01732020 -0.00498022
v 0.00518637 -0.01732020 -0.00622685
v 0.00863572 -0.01732020 -0.00982583
v 0.00974956 -0.01732020 -0.01297830
v 0.00932680 -0.01732020 -0.01135467
v 0.00769621 -0.01732020 -0.00843578
v 0.00653530 -0.01732020 -0.00722451
v 0.00368825 -0.01732020 -0.00547151
v 0.00041983 -0.01732020 -0.00476711
v -0.00289654 -0.01732020 -0.00519179
v -0.00445333 -0.01732020 -0.00581736
v -0.00714146 -0.01732020 -0.00780549
v -0.00819547 -0.01732020 -0.00911085
v -0.00957264 -0.01732020 -0.01215751
v -0.00985618 -0.01732020 -0.01381114
v -0.00985618 -0.01732020 -0.01548892
v -0.00901371 -0.01732020 -0.01872449
v -0.00819547 -0.01732020 -0.02018921
v -0.00588200 -0.01732020 -0.02260304
v -0.00445333 -0.01732020 -0.02348270
v -0.00125643 -0.01732020 -0.02446174
v 0.00041983 -0.01732020 -0.02453295
v 0.00208402 -0.01732020 -0.02431984
v 0.00518637 -0.01732020 -0.02307322
v 0.00653530 -0.01732020 -0.02207556
v 0.00863572 -0.01732020 -0.01947423
v 0.00943357 -0.01622694 -0.01303249
v 0.00957124 -0.01622694 -0.01465003
v 0.00891959 -0.01521399 -0.01312062
v 0.00904977 -0.01521399 -0.01465003
v 0.00822616 -0.01431787 -0.01323952
v 0.00834621 -0.01431787 -0.01465003
v 0.00737828 -0.01357090 -0.01338490
v 0.00748596 -0.01357090 -0.01465003
v 0.00705834 -0.01357090 -0.01215617
v 0.00902451 -0.01622694 -0.01146147
v 0.00853282 -0.01521399 -0.01163520
v 0.00786946 -0.01431787 -0.01186958
v 0.00835583 -0.01622694 -0.00998219
v 0.00790057 -0.01521399 -0.01023651
v 0.00728637 -0.01431787 -0.01057963
v 0.00653535 -0.01357090 -0.01099917
v 0.00582435 -0.01357090 -0.00994721
v 0.00744677 -0.01622694 -0.00863719
v 0.00704104 -0.01521399 -0.00896480
v 0.00649366 -0.01431787 -0.00940678
v 0.00632348 -0.01622694 -0.00746517
v 0.00597896 -0.01521399 -0.00785663
v 0.00551414 -0.01431787 -0.00838477
v 0.00501828 -0.01622694 -0.00649985
v 0.00474486 -0.01521399 -0.00694390
v 0.00437599 -0.01431787 -0.00754300
v 0.00392495 -0.01357090 -0.00827553
v 0.00356871 -0.01622694 -0.00576899
v 0.00337427 -0.01521399 -0.00625287
v 0.00311195 -0.01431787 -0.00690568
v 0.00201647 -0.01622694 -0.00529362
v 0.00190661 -0.01521399 -0.00580340
v 0.00175838 -0.01431787 -0.00649116
v 0.00157715 -0.01357090 -0.00733211
v 0.00031773 -0.01357090 -0.00717083
v 0.00040623 -0.01622694 -0.00508743
v 0.00038410 -0.01521399 -0.00560843
v 0.00035424 -0.01431787 -0.00631135
v -0.00121570 -0.01622694 -0.00515632
v -0.00114947 -0.01521399 -0.00567358
v -0.00106010 -0.01431787 -0.00637143
v -0.00095084 -0.01357090 -0.00722472
v -0.00219204 -0.01357090 -0.00749222
v -0.00280266 -0.01622694 -0.00549834
v -0.00264996 -0.01521399 -0.00599696
v -0.00244395 -0.01431787 -0.00666967
v -0.00430899 -0.01622694 -0.00610363
v -0.00407422 -0.01521399 -0.00656927
v -0.00375748 -0.01431787 -0.00719749
v -0.00569136 -0.01622694 -0.00695479
v -0.00538127 -0.01521399 -0.00737406
v -0.00496292 -0.01431787 -0.00793971
v -0.00445138 -0.01357090 -0.00863135
v -0.00690999 -0.01622694 -0.00802733
v -0.00653351 -0.01521399 -0.00838816
v -0.00602558 -0.01431787 -0.00887497
v -0.00792984 -0.01622694 -0.00929038
v -0.00749779 -0.01521399 -0.00958240
v -0.00691490 -0.01431787 -0.00997637
v -0.00620216 -0.01357090 -0.01045809
v -0.00682139 -0.01357090 -0.01156656
v -0.00872156 -0.01622694 -0.01070763
v -0.00824638 -0.01521399 -0.01092243
v -0.00760528 -0.01431787 -0.01121222
v -0.00926238 -0.01622694 -0.01223829
v -0.00875773 -0.01521399 -0.01236969
v -0.00807688 -0.01431787 -0.01254697
v -0.00724438 -0.01357090 -0.01276374
v -0.00745896 -0.01357090 -0.01401518
v -0.00953674 -0.01622694 -0.01383833
v -0.00901714 -0.01521399 -0.01388256
v -0.00831612 -0.01431787 -0.01394222
v -0.00745896 -0.01357090 -0.01528488
v -0.00953674 -0.01622694 -0.01546173
v -0.00901714 -0.01521399 -0.01541750
v -0.00831612 -0.01431787 -0.01535784
v -0.00926238 -0.01622694 -0.01706177
v -0.00875773 -0.01521399 -0.01693037
v -0.00807688 -0.01431787 -0.01675309
v -0.00724438 -0.01357090 -0.01653633
v -0.00872156 -0.01622694 -0.01859243
v -0.00824638 -0.01521399 -0.01837764
v -0.00760528 -0.01431787 -0.01808784
v -0.00792984 -0.01622694 -0.02000968
v -0.00749779 -0.01521399 -0.01971766
v -0.00691490 -0.01431787 -0.01932369
v -0.00620216 -0.01357090 -0.01884197
v -0.00540451 -0.01357090 -0.01982985
v -0.00690999 -0.01622694 -0.02127274
v -0.00653351 -0.01521399 -0.02091191
v -0.00602558 -0.01431787 -0.02042509
v -0.00569136 -0.01622694 -0.02234527
v -0.00538127 -0.01521399 -0.02192601
v -0.00496292 -0.01431787 -0.02136035
v -0.00445138 -0.01357090 -0.02066871
v -0.00337019 -0.01357090 -0.02133442
v -0.00430899 -0.01622694 -0.02319643
v -0.00407422 -0.01521399 -0.02273079
v -0.00375748 -0.01431787 -0.02210257
v -0.00280266 -0.01622694 -0.02380172
v -0.00264996 -0.01521399 -0.02330310
v -0.00244395 -0.01431787 -0.02263039
v -0.00121570 -0.01622694 -0.02414374
v -0.00114947 -0.01521399 -0.02362648
v -0.00106010 -0.01431787 -0.02292863
v -0.00095084 -0.01357090 -0.02207534
v 0.00040623 -0.01622694 -0.02421264
v 0.00038410 -0.01521399 -0.02369163
v 0.00035424 -0.01431787 -0.02298871
v 0.00201647 -0.01622694 -0.02400644
v 0.00190661 -0.01521399 -0.02349667
v 0.00175838 -0.01431787 -0.02280890
v 0.00157715 -0.01357090 -0.02196796
v 0.00279120 -0.01357090 -0.02159616
v 0.00356871 -0.01622694 -0.02353107
v 0.00337427 -0.01521399 -0.02304720
v 0.00311195 -0.01431787 -0.02239438
v 0.00501828 -0.01622694 -0.02280021
v 0.00474486 -0.01521399 -0.02235616
v 0.00437599 -0.01431787 -0.02175706
v 0.00392495 -0.01357090 -0.02102453
v 0.00494579 -0.01357090 -0.02026952
v 0.00632348 -0.01622694 -0.02183489
v 0.00597896 -0.01521399 -0.02144343
v 0.00551414 -0.01431787 -0.02091529
v 0.00744677 -0.01622694 -0.02066287
v 0.00704104 -0.01521399 -0.02033527
v 0.00649366 -0.01431787 -0.01989328
v 0.00835583 -0.01622694 -0.01931787
v 0.00790057 -0.01521399 -0.01906355
v 0.00728637 -0.01431787 -0.01872043
v 0.00653535 -0.01357090 -0.01830089
v 0.00902451 -0.01622694 -0.01783859
v 0.00853282 -0.01521399 -0.01766486
v 0.00786946 -0.01431787 -0.01743048
v 0.00943357 -0.01622694 -0.01626758
v 0.00891959 -0.01521399 -0.01617945
v 0.00822616 -0.01431787 -0.01606055
v 0.00737828 -0.01357090 -0.01591516
f 1 2 3
f 4 5 6
f 7 8 9
f 9 8 10
f 11 12 13
f 7 9 14
f 14 9 15
f 14 15 3
f 3 15 16
f 3 16 1
f 17 18 16
f 16 18 19
f 8 11 10
f 10 11 13
f 10 13 19
f 19 13 4
f 19 4 16
f 16 4 6
f 16 6 1
f 20 21 22
f 22 21 3
f 22 3 2
f 23 24 4
f 4 24 25
f 4 25 5
f 20 26 21
f 21 26 27
f 21 27 23
f 23 27 28
f 23 28 24
f 29 30 31
f 32 33 34
f 35 36 37
f 37 36 38
f 37 38 39
f 39 40 41
f 34 37 32
f 32 37 39
f 32 39 42
f 42 39 41
f 42 41 43
f 43 41 44
f 44 45 43
f 43 45 46
f 43 46 47
f 47 46 29
f 47 29 37
f 37 29 31
f 37 31 35
f 46 45 48
f 46 48 49
f 48 50 49
f 49 50 51
f 49 51 52
f 52 51 53
f 53 54 52
f 52 54 55
f 52 55 39
f 39 55 56
f 39 56 40
f 57 58 59
f 57 59 60
f 60 59 61
f 60 61 62
f 63 64 65
f 66 67 68
f 68 67 69
f 68 69 70
f 69 63 70
f 70 63 65
f 70 65 71
f 71 65 72
f 71 72 73
f 73 72 74
f 73 74 68
f 68 74 75
f 68 75 66
f 66 75 76
f 77 61 78
f 78 61 59
f 78 59 79
f 79 59 80
f 64 81 65
f 65 81 82
f 65 82 59
f 59 82 83
f 59 83 80
f 77 84 61
f 61 84 85
f 61 85 75
f 75 85 86
f 75 86 76
f 61 75 42
f 42 75 32
f 43 47 62
f 62 47 87
f 62 87 60
f 60 87 88
f 89 87 37
f 37 87 47
f 90 89 34
f 34 89 37
f 34 33 90
f 90 33 74
f 90 74 91
f 75 74 32
f 32 74 33
f 92 91 72
f 72 91 74
f 93 92 17
f 17 92 72
f 17 72 18
f 16 94 17
f 17 94 93
f 15 95 16
f 16 95 94
f 57 96 58
f 58 96 95
f 58 95 9
f 9 95 15
f 88 96 60
f 60 96 57
f 93 94 97
f 98 94 99
f 99 94 95
f 100 101 96
f 96 101 102
f 96 102 95
f 95 102 103
f 95 103 99
f 104 105 89
f 89 105 106
f 89 106 107
f 98 108 94
f 94 108 109
f 94 109 97
f 97 109 110
f 97 110 111
f 111 110 112
f 111 112 113
f 93 97 92
f 92 97 114
f 92 114 91
f 91 114 115
f 91 115 90
f 90 115 111
f 90 111 89
f 89 111 113
f 89 113 104
f 100 96 116
f 116 96 88
f 116 88 107
f 107 88 87
f 107 87 89
f 72 65 18
f 18 65 19
f 10 19 59
f 59 19 65
f 21 117 3
f 3 117 14
f 13 12 118
f 13 118 119
f 118 120 119
f 119 120 121
f 119 121 117
f 117 121 122
f 122 123 117
f 117 123 124
f 117 124 14
f 14 124 125
f 14 125 7
f 119 23 13
f 13 23 4
f 119 117 23
f 23 117 21
f 49 126 46
f 46 126 29
f 127 128 129
f 129 128 38
f 129 38 36
f 126 130 29
f 29 130 131
f 29 131 30
f 127 132 128
f 128 132 133
f 128 133 126
f 126 133 134
f 126 134 130
f 128 52 38
f 38 52 39
f 52 128 49
f 49 128 126
f 35 135 36
f 36 135 129
f 136 131 137
f 137 131 130
f 137 130 138
f 138 130 134
f 138 134 139
f 139 134 133
f 139 133 140
f 140 133 132
f 140 132 141
f 141 132 127
f 141 127 135
f 135 127 129
f 136 31 131
f 131 31 30
f 35 31 135
f 135 31 136
f 135 136 137
f 140 141 139
f 139 141 135
f 139 135 138
f 138 135 137
f 44 142 45
f 45 142 48
f 143 56 144
f 144 56 55
f 144 55 145
f 145 55 54
f 145 54 146
f 146 54 53
f 146 53 147
f 147 53 51
f 147 51 148
f 148 51 50
f 148 50 142
f 142 50 48
f 143 41 56
f 56 41 40
f 44 41 142
f 142 41 143
f 142 143 144
f 147 148 146
f 146 148 142
f 146 142 145
f 145 142 144
f 1 149 2
f 2 149 22
f 150 25 151
f 151 25 24
f 151 24 152
f 152 24 28
f 152 28 153
f 153 28 27
f 153 27 154
f 154 27 26
f 154 26 155
f 155 26 20
f 155 20 149
f 149 20 22
f 150 6 25
f 25 6 5
f 1 6 149
f 149 6 150
f 149 150 151
f 154 155 153
f 153 155 149
f 153 149 152
f 152 149 151
f 11 156 12
f 12 156 118
f 157 125 158
f 158 125 124
f 158 124 159
f 159 124 123
f 159 123 160
f 160 123 122
f 160 122 161
f 161 122 121
f 161 121 162
f 162 121 120
f 162 120 156
f 156 120 118
f 157 8 125
f 125 8 7
f 158 159 157
f 157 159 160
f 11 8 156
f 156 8 157
f 156 157 162
f 162 157 160
f 162 160 161
f 114 97 71
f 71 97 70
f 97 111 70
f 70 111 68
f 111 115 68
f 68 115 73
f 115 114 73
f 73 114 71
f 42 43 61
f 61 43 62
f 9 10 58
f 58 10 59
f 82 98 83
f 83 98 99
f 83 99 80
f 80 99 103
f 80 103 79
f 79 103 102
f 79 102 78
f 78 102 101
f 78 101 77
f 77 101 100
f 77 100 84
f 84 100 116
f 84 116 85
f 85 116 107
f 85 107 86
f 86 107 106
f 86 106 76
f 76 106 105
f 76 105 66
f 66 105 104
f 66 104 67
f 67 104 113
f 67 113 69
f 69 113 112
f 69 112 63
f 63 112 110
f 63 110 64
f 64 110 109
f 64 109 81
f 81 109 108
f 81 108 82
f 82 108 98
f 163 164 165
f 166 167 168
f 169 170 171
f 171 170 172
f 169 173 170
f 170 173 174
f 170 174 166
f 166 174 175
f 166 175 167
f 168 176 166
f 166 176 177
f 166 177 178
f 178 177 179
f 165 180 163
f 163 180 181
f 163 181 170
f 170 181 182
f 170 182 172
f 179 183 178
f 178 183 184
f 178 184 185
f 185 186 178
f 178 186 187
f 178 187 163
f 163 187 188
f 163 188 164
f 189 190 163
f 163 190 178
f 191 189 170
f 170 189 163
f 192 191 166
f 166 191 170
f 190 192 178
f 178 192 166
f 193 194 179
f 195 196 169
f 174 173 197
f 196 198 169
f 169 198 199
f 169 199 173
f 173 199 200
f 173 200 197
f 195 169 201
f 201 169 171
f 201 171 202
f 172 203 171
f 171 203 204
f 171 204 202
f 182 205 172
f 172 205 206
f 172 206 203
f 207 208 181
f 181 208 209
f 181 209 182
f 182 209 210
f 182 210 205
f 211 212 180
f 180 212 213
f 180 213 181
f 181 213 214
f 181 214 207
f 211 180 215
f 215 180 165
f 215 165 216
f 216 165 217
f 217 165 164
f 217 164 218
f 218 164 219
f 219 164 188
f 219 188 220
f 221 222 186
f 186 222 223
f 186 223 187
f 223 224 187
f 187 224 225
f 187 225 188
f 188 225 226
f 188 226 220
f 221 186 227
f 227 186 185
f 227 185 228
f 228 185 229
f 229 185 184
f 229 184 230
f 230 184 231
f 231 184 183
f 231 183 232
f 194 233 179
f 179 233 234
f 179 234 183
f 183 234 235
f 183 235 232
f 193 179 236
f 236 179 177
f 236 177 237
f 237 177 238
f 238 177 176
f 238 176 239
f 239 176 240
f 240 176 168
f 240 168 241
f 242 243 167
f 167 243 244
f 167 244 168
f 168 244 245
f 168 245 241
f 175 246 167
f 167 246 247
f 167 247 242
f 197 248 174
f 174 248 249
f 174 249 175
f 175 249 250
f 175 250 246
f 251 252 190
f 190 252 253
f 190 253 254
f 254 255 190
f 190 255 256
f 190 256 192
f 192 256 257
f 257 258 192
f 192 258 259
f 192 259 260
f 261 191 262
f 262 191 192
f 262 192 263
f 263 192 260
f 261 264 191
f 191 264 265
f 191 265 266
f 267 268 189
f 189 268 269
f 189 269 270
f 270 271 189
f 189 271 272
f 189 272 190
f 190 272 273
f 190 273 251
f 266 274 191
f 191 274 275
f 191 275 189
f 189 275 276
f 189 276 267
f 277 261 262
f 278 264 279
f 279 264 261
f 279 261 280
f 280 261 277
f 278 281 264
f 264 281 282
f 264 282 265
f 283 266 284
f 284 266 265
f 284 265 285
f 285 265 282
f 283 286 266
f 266 286 287
f 266 287 274
f 287 288 274
f 274 288 289
f 274 289 275
f 289 290 275
f 275 290 291
f 275 291 276
f 276 291 292
f 276 292 267
f 267 292 293
f 267 293 294
f 295 268 296
f 296 268 267
f 296 267 297
f 297 267 294
f 295 298 268
f 268 298 299
f 268 299 269
f 300 270 301
f 301 270 269
f 301 269 302
f 302 269 299
f 300 303 270
f 270 303 304
f 270 304 271
f 304 305 271
f 271 305 306
f 271 306 272
f 306 307 272
f 272 307 308
f 272 308 273
f 273 308 309
f 273 309 251
f 251 309 310
f 251 310 311
f 312 252 313
f 313 252 251
f 313 251 314
f 314 251 311
f 312 315 252
f 252 315 316
f 252 316 253
f 317 254 318
f 318 254 253
f 318 253 319
f 319 253 316
f 317 320 254
f 254 320 321
f 254 321 255
f 321 322 255
f 255 322 323
f 255 323 256
f 323 324 256
f 256 324 325
f 256 325 257
f 257 325 326
f 257 326 258
f 258 326 327
f 258 327 328
f 329 259 330
f 330 259 258
f 330 258 331
f 331 258 328
f 329 332 259
f 259 332 333
f 259 333 260
f 333 334 260
f 260 334 335
f 260 335 263
f 335 336 263
f 263 336 337
f 263 337 262
f 262 337 338
f 262 338 277
f 200 199 339
f 196 195 340
f 210 209 341
f 207 214 342
f 218 219 343
f 230 231 344
f 235 234 345
f 239 240 346
f 245 244 347
f 277 338 348
f 280 277 349
f 278 279 350
f 285 282 351
f 288 287 352
f 297 294 353
f 302 299 354
f 305 304 355
f 314 311 356
f 319 316 357
f 322 321 358
f 326 325 359
f 331 328 360
f 334 333 361
f 338 337 362
f 362 337 336
f 336 335 363
f 363 335 334
f 333 332 364
f 364 332 329
f 329 330 365
f 365 330 331
f 328 327 366
f 366 327 326
f 325 324 367
f 367 324 323
f 367 323 322
f 321 320 368
f 368 320 317
f 317 318 369
f 369 318 319
f 316 315 370
f 370 315 312
f 312 313 371
f 371 313 314
f 311 310 372
f 372 310 309
f 309 308 373
f 373 308 307
f 307 306 374
f 374 306 305
f 304 303 375
f 375 303 300
f 300 301 376
f 376 301 302
f 299 298 377
f 377 298 295
f 295 296 378
f 378 296 297
f 294 293 379
f 379 293 292
f 292 291 380
f 380 291 290
f 290 289 381
f 381 289 288
f 287 286 382
f 382 286 283
f 283 284 383
f 383 284 285
f 282 281 384
f 384 281 278
f 280 349 279
f 338 362 348
f 348 362 385
f 348 385 386
f 386 385 387
f 386 387 388
f 388 387 389
f 388 389 390
f 390 389 391
f 390 391 392
f 392 391 249
f 392 249 248
f 393 246 250
f 336 363 362
f 362 363 394
f 362 394 385
f 385 394 395
f 385 395 387
f 387 395 396
f 387 396 389
f 389 396 393
f 389 393 391
f 391 393 250
f 391 250 249
f 334 361 363
f 363 361 397
f 363 397 394
f 394 397 398
f 394 398 395
f 395 398 399
f 395 399 396
f 396 399 400
f 396 400 393
f 393 400 247
f 393 247 246
f 401 243 242
f 333 364 361
f 361 364 402
f 361 402 397
f 397 402 403
f 397 403 398
f 398 403 404
f 398 404 399
f 399 404 401
f 399 401 400
f 400 401 242
f 400 242 247
f 329 365 364
f 364 365 405
f 364 405 402
f 402 405 406
f 402 406 403
f 403 406 407
f 403 407 404
f 404 407 347
f 404 347 401
f 401 347 244
f 401 244 243
f 331 360 365
f 365 360 408
f 365 408 405
f 405 408 409
f 405 409 406
f 406 409 410
f 406 410 407
f 407 410 411
f 407 411 347
f 347 411 241
f 347 241 245
f 328 366 360
f 360 366 412
f 360 412 408
f 408 412 413
f 408 413 409
f 409 413 414
f 409 414 410
f 410 414 346
f 410 346 411
f 411 346 240
f 411 240 241
f 326 359 366
f 366 359 415
f 366 415 412
f 412 415 416
f 412 416 413
f 413 416 417
f 413 417 414
f 414 417 418
f 414 418 346
f 346 418 238
f 346 238 239
f 419 236 237
f 325 367 359
f 359 367 420
f 359 420 415
f 415 420 421
f 415 421 416
f 416 421 422
f 416 422 417
f 417 422 419
f 417 419 418
f 418 419 237
f 418 237 238
f 322 358 367
f 367 358 423
f 367 423 420
f 420 423 424
f 420 424 421
f 421 424 425
f 421 425 422
f 422 425 426
f 422 426 419
f 419 426 193
f 419 193 236
f 427 233 194
f 321 368 358
f 358 368 428
f 358 428 423
f 423 428 429
f 423 429 424
f 424 429 430
f 424 430 425
f 425 430 427
f 425 427 426
f 426 427 194
f 426 194 193
f 317 369 368
f 368 369 431
f 368 431 428
f 428 431 432
f 428 432 429
f 429 432 433
f 429 433 430
f 430 433 345
f 430 345 427
f 427 345 234
f 427 234 233
f 319 357 369
f 369 357 434
f 369 434 431
f 431 434 435
f 431 435 432
f 432 435 436
f 432 436 433
f 433 436 437
f 433 437 345
f 345 437 232
f 345 232 235
f 316 370 357
f 357 370 438
f 357 438 434
f 434 438 439
f 434 439 435
f 435 439 440
f 435 440 436
f 436 440 344
f 436 344 437
f 437 344 231
f 437 231 232
f 312 371 370
f 370 371 441
f 370 441 438
f 438 441 442
f 438 442 439
f 439 442 443
f 439 443 440
f 440 443 444
f 440 444 344
f 344 444 229
f 344 229 230
f 445 227 228
f 314 356 371
f 371 356 446
f 371 446 441
f 441 446 447
f 441 447 442
f 442 447 448
f 442 448 443
f 443 448 445
f 443 445 444
f 444 445 228
f 444 228 229
f 311 372 356
f 356 372 449
f 356 449 446
f 446 449 450
f 446 450 447
f 447 450 451
f 447 451 448
f 448 451 452
f 448 452 445
f 445 452 221
f 445 221 227
f 453 223 222
f 309 373 372
f 372 373 454
f 372 454 449
f 449 454 455
f 449 455 450
f 450 455 456
f 450 456 451
f 451 456 453
f 451 453 452
f 452 453 222
f 452 222 221
f 226 225 457
f 457 225 224
f 307 374 373
f 373 374 458
f 373 458 454
f 454 458 459
f 454 459 455
f 455 459 460
f 455 460 456
f 456 460 457
f 456 457 453
f 453 457 224
f 453 224 223
f 305 355 374
f 374 355 461
f 374 461 458
f 458 461 462
f 458 462 459
f 459 462 463
f 459 463 460
f 460 463 464
f 460 464 457
f 457 464 220
f 457 220 226
f 304 375 355
f 355 375 465
f 355 465 461
f 461 465 466
f 461 466 462
f 462 466 467
f 462 467 463
f 463 467 343
f 463 343 464
f 464 343 219
f 464 219 220
f 300 376 375
f 375 376 468
f 375 468 465
f 465 468 469
f 465 469 466
f 466 469 470
f 466 470 467
f 467 470 471
f 467 471 343
f 343 471 217
f 343 217 218
f 472 215 216
f 302 354 376
f 376 354 473
f 376 473 468
f 468 473 474
f 468 474 469
f 469 474 475
f 469 475 470
f 470 475 472
f 470 472 471
f 471 472 216
f 471 216 217
f 299 377 354
f 354 377 476
f 354 476 473
f 473 476 477
f 473 477 474
f 474 477 478
f 474 478 475
f 475 478 479
f 475 479 472
f 472 479 211
f 472 211 215
f 480 213 212
f 295 378 377
f 377 378 481
f 377 481 476
f 476 481 482
f 476 482 477
f 477 482 483
f 477 483 478
f 478 483 480
f 478 480 479
f 479 480 212
f 479 212 211
f 297 353 378
f 378 353 484
f 378 484 481
f 481 484 485
f 481 485 482
f 482 485 486
f 482 486 483
f 483 486 342
f 483 342 480
f 480 342 214
f 480 214 213
f 294 379 353
f 353 379 487
f 353 487 484
f 484 487 488
f 484 488 485
f 485 488 489
f 485 489 486
f 486 489 490
f 486 490 342
f 342 490 208
f 342 208 207
f 292 380 379
f 379 380 491
f 379 491 487
f 487 491 492
f 487 492 488
f 488 492 493
f 488 493 489
f 489 493 341
f 489 341 490
f 490 341 209
f 490 209 208
f 290 381 380
f 380 381 494
f 380 494 491
f 491 494 495
f 491 495 492
f 492 495 496
f 492 496 493
f 493 496 497
f 493 497 341
f 341 497 205
f 341 205 210
f 498 203 206
f 288 352 381
f 381 352 499
f 381 499 494
f 494 499 500
f 494 500 495
f 495 500 501
f 495 501 496
f 496 501 498
f 496 498 497
f 497 498 206
f 497 206 205
f 287 382 352
f 352 382 502
f 352 502 499
f 499 502 503
f 499 503 500
f 500 503 504
f 500 504 501
f 501 504 505
f 501 505 498
f 498 505 204
f 498 204 203
f 506 201 202
f 283 383 382
f 382 383 507
f 382 507 502
f 502 507 508
f 502 508 503
f 503 508 509
f 503 509 504
f 504 509 506
f 504 506 505
f 505 506 202
f 505 202 204
f 285 351 383
f 383 351 510
f 383 510 507
f 507 510 511
f 507 511 508
f 508 511 512
f 508 512 509
f 509 512 340
f 509 340 506
f 506 340 195
f 506 195 201
f 282 384 351
f 351 384 513
f 351 513 510
f 510 513 514
f 510 514 511
f 511 514 515
f 511 515 512
f 512 515 516
f 512 516 340
f 340 516 198
f 340 198 196
f 278 350 384
f 384 350 517
f 384 517 513
f 513 517 518
f 513 518 514
f 514 518 519
f 514 519 515
f 515 519 339
f 515 339 516
f 516 339 199
f 516 199 198
f 279 349 350
f 350 349 520
f 350 520 517
f 517 520 521
f 517 521 518
f 518 521 522
f 518 522 519
f 519 522 523
f 519 523 339
f 339 523 197
f 339 197 200
f 277 348 349
f 349 348 386
f 349 386 520
f 520 386 388
f 520 388 521
f 521 388 390
f 521 390 522
f 522 390 392
f 522 392 523
f 523 392 248
f 523 248 197

