o convex_0
v -0.006352 -0.010453 -0.013840
v -0.001732 -0.010453 -0.003446
v -0.001732 -0.017382 -0.003446
v -0.011202 -0.010453 -0.003446
v -0.011202 -0.017382 -0.013840
v -0.011202 -0.017382 -0.003446
v -0.011202 -0.010453 -0.013840
v -0.001732 -0.013225 -0.008529
v -0.009585 -0.017382 -0.013840
v -0.001732 -0.010453 -0.008529
v -0.001732 -0.017382 -0.005065
v -0.006352 -0.013225 -0.013840
f 8 11 12 
f 3 2 4 
f 2 1 4 
f 5 3 6 
f 3 4 6 
f 4 5 6 
f 4 1 7 
f 1 5 7 
f 5 4 7 
f 2 3 8 
f 5 1 9 
f 3 5 9 
f 1 2 10 
f 2 8 10 
f 8 1 10 
f 8 3 11 
f 3 9 11 
f 11 9 12 
f 1 8 12 
f 9 1 12 
o convex_1
v -0.001732 -0.017386 -0.024234
v -0.011202 -0.063115 -0.025851
v -0.001732 -0.063115 -0.025851
v -0.011202 -0.063115 -0.021000
v -0.011202 -0.017386 -0.025851
v -0.011202 -0.017386 -0.021000
v -0.007507 -0.063115 -0.021000
v -0.001732 -0.017386 -0.025851
v -0.007275 -0.017386 -0.021000
v -0.001732 -0.063115 -0.024234
f 13 21 22 
f 14 15 16 
f 15 14 17 
f 14 16 17 
f 13 17 18 
f 17 16 18 
f 16 15 19 
f 18 16 19 
f 13 15 20 
f 17 13 20 
f 15 17 20 
f 13 18 21 
f 18 19 21 
f 21 19 22 
f 15 13 22 
f 19 15 22 
o convex_2
v -0.011202 -0.063115 -0.021000
v -0.009816 -0.017391 -0.013841
v -0.007507 -0.017391 -0.020538
v -0.009816 -0.063115 -0.013841
v -0.007507 -0.063115 -0.021000
v -0.011202 -0.017391 -0.021000
v -0.011202 -0.063115 -0.013841
v -0.011202 -0.017391 -0.013841
v -0.007507 -0.017391 -0.021000
v -0.007507 -0.063115 -0.020769
f 27 25 32 
f 25 24 26 
f 26 23 27 
f 24 25 28 
f 27 23 28 
f 28 23 29 
f 26 24 29 
f 23 26 29 
f 24 28 30 
f 28 29 30 
f 29 24 30 
f 25 27 31 
f 28 25 31 
f 27 28 31 
f 25 26 32 
f 26 27 32 
o convex_3
v -0.011202 -0.017382 -0.013841
v -0.001732 -0.010453 -0.020769
v -0.001732 -0.013225 -0.020769
v -0.011202 -0.010453 -0.025851
v -0.001732 -0.017382 -0.025851
v -0.011202 -0.010453 -0.013841
v -0.011202 -0.017382 -0.025851
v -0.006353 -0.013225 -0.013841
v -0.001732 -0.010453 -0.025851
v -0.001732 -0.017382 -0.024233
v -0.006353 -0.010453 -0.013841
v -0.009584 -0.017382 -0.013841
f 42 40 44 
f 34 35 37 
f 34 36 38 
f 36 33 38 
f 33 36 39 
f 37 33 39 
f 36 37 39 
f 35 34 40 
f 38 33 40 
f 36 34 41 
f 37 36 41 
f 34 37 41 
f 33 37 42 
f 37 35 42 
f 35 40 42 
f 34 38 43 
f 40 34 43 
f 38 40 43 
f 40 33 44 
f 33 42 44 
o convex_4
v -0.007045 0.010104 -0.020770
v -0.013743 0.000172 -0.028392
v -0.013743 0.010104 -0.028392
v -0.013743 0.000172 -0.015457
v -0.007739 0.000172 -0.028160
v -0.013743 0.010104 -0.015457
v -0.007045 0.000172 -0.020770
v -0.007970 0.010104 -0.028392
v -0.011663 0.010104 -0.015457
v -0.011663 0.000172 -0.015457
v -0.007507 0.010104 -0.027236
v -0.007970 0.000172 -0.028392
v -0.007507 0.000172 -0.027236
v -0.007045 0.010104 -0.021462
v -0.007045 0.000172 -0.021462
v -0.011433 0.010104 -0.015689
f 53 54 60 
f 47 46 48 
f 48 46 49 
f 45 47 50 
f 47 48 50 
f 48 49 51 
f 47 45 52 
f 46 47 52 
f 45 50 53 
f 50 48 53 
f 48 51 54 
f 53 48 54 
f 52 45 55 
f 49 52 55 
f 49 46 56 
f 46 52 56 
f 52 49 56 
f 51 49 57 
f 49 55 57 
f 57 55 58 
f 45 51 58 
f 55 45 58 
f 58 51 59 
f 51 57 59 
f 57 58 59 
f 51 45 60 
f 45 53 60 
f 54 51 60 
o convex_5
v -0.009816 -0.063115 -0.013840
v -0.009816 -0.017391 -0.008066
v -0.007276 -0.017391 -0.008066
v -0.011202 -0.017391 -0.013840
v -0.011202 -0.063115 -0.008066
v -0.007507 -0.063115 -0.008066
v -0.009585 -0.017391 -0.013608
v -0.011202 -0.063115 -0.013840
v -0.011202 -0.017391 -0.008066
v -0.007507 -0.063115 -0.008528
v -0.007276 -0.018541 -0.008297
v -0.009816 -0.017391 -0.013840
f 64 67 72 
f 62 63 64 
f 62 65 66 
f 63 62 66 
f 65 61 66 
f 64 63 67 
f 64 61 68 
f 61 65 68 
f 65 64 68 
f 62 64 69 
f 64 65 69 
f 65 62 69 
f 66 61 70 
f 63 66 71 
f 61 67 71 
f 67 63 71 
f 70 61 71 
f 66 70 71 
f 61 64 72 
f 67 61 72 
o convex_6
v -0.001732 -0.017391 -0.005063
v -0.011202 -0.063115 -0.008066
v -0.007275 -0.063115 -0.008066
v -0.011202 -0.063115 -0.003446
v -0.011202 -0.017391 -0.008066
v -0.001732 -0.063115 -0.003446
v -0.011202 -0.017391 -0.003446
v -0.001732 -0.017391 -0.003446
v -0.007044 -0.017391 -0.008066
v -0.001732 -0.063115 -0.005063
v -0.006813 -0.063115 -0.007835
f 82 75 83 
f 74 75 76 
f 75 74 77 
f 74 76 77 
f 76 75 78 
f 76 78 79 
f 73 77 79 
f 77 76 79 
f 78 73 80 
f 79 78 80 
f 73 79 80 
f 77 73 81 
f 75 77 81 
f 73 78 82 
f 78 75 82 
f 81 73 82 
f 81 82 83 
f 75 81 83 
o convex_7
v 0.003811 -0.017391 -0.023772
v -0.001732 -0.063115 -0.025851
v -0.001732 -0.063115 -0.024234
v 0.003811 -0.063115 -0.023772
v 0.003811 -0.063115 -0.025851
v -0.001732 -0.017391 -0.025851
v 0.003811 -0.017391 -0.025851
v -0.001732 -0.017391 -0.024234
v 0.003118 -0.018080 -0.023772
v 0.003349 -0.063115 -0.023772
f 87 92 93 
f 86 85 87 
f 84 87 88 
f 87 85 88 
f 88 85 89 
f 85 86 89 
f 84 88 90 
f 88 89 90 
f 89 84 90 
f 84 89 91 
f 89 86 91 
f 87 84 92 
f 84 91 92 
f 91 86 92 
f 86 87 93 
f 92 86 93 
o convex_8
v -0.001732 -0.017382 -0.025850
v 0.003811 0.000171 -0.019153
v 0.003811 0.000171 -0.024925
v -0.002425 0.000171 -0.024925
v -0.002425 -0.010219 -0.020078
v 0.003811 -0.017382 -0.023540
v -0.002425 0.000171 -0.020078
v 0.003811 -0.013224 -0.019846
v 0.003811 -0.017382 -0.025850
v -0.002425 -0.009988 -0.025850
v -0.001732 -0.017382 -0.024233
v 0.003349 -0.010219 -0.019153
v 0.003811 -0.009988 -0.025850
v -0.001732 -0.013224 -0.020771
v 0.003348 -0.013224 -0.019846
v 0.003349 0.000171 -0.019153
v 0.003811 -0.010219 -0.019153
v -0.002425 -0.010451 -0.025850
f 104 98 111 
f 95 96 97 
f 96 95 99 
f 95 97 100 
f 97 98 100 
f 99 95 101 
f 99 94 102 
f 96 99 102 
f 97 96 103 
f 98 97 103 
f 102 94 103 
f 94 99 104 
f 100 98 105 
f 96 102 106 
f 103 96 106 
f 102 103 106 
f 98 104 107 
f 107 104 108 
f 99 101 108 
f 104 99 108 
f 105 98 108 
f 101 105 108 
f 98 107 108 
f 95 100 109 
f 105 95 109 
f 100 105 109 
f 101 95 110 
f 95 105 110 
f 105 101 110 
f 103 94 111 
f 98 103 111 
f 94 104 111 
o convex_9
v 0.003811 -0.017613 -0.025850
v 0.011202 -0.010453 -0.015227
v 0.006352 -0.010453 -0.015227
v 0.011202 -0.017613 -0.015227
v 0.011202 -0.010453 -0.025850
v 0.011202 -0.017613 -0.025850
v 0.003811 -0.010453 -0.025850
v 0.003811 -0.013225 -0.019616
v 0.009585 -0.017613 -0.015459
v 0.003811 -0.017613 -0.023540
v 0.006352 -0.013225 -0.015227
v 0.003811 -0.010453 -0.019616
f 118 119 123 
f 113 114 115 
f 114 113 116 
f 113 115 116 
f 115 112 117 
f 112 116 117 
f 116 115 117 
f 116 112 118 
f 114 116 118 
f 118 112 119 
f 112 115 120 
f 119 112 121 
f 112 120 121 
f 115 114 122 
f 114 119 122 
f 120 115 122 
f 119 121 122 
f 121 120 122 
f 114 118 123 
f 119 114 123 
o convex_10
v 0.005197 -0.017613 -0.003446
v -0.001732 -0.063115 -0.005063
v 0.004734 -0.063115 -0.006218
v -0.001732 -0.017613 -0.005063
v -0.001732 -0.063115 -0.003446
v 0.005197 -0.017613 -0.006218
v 0.005197 -0.063115 -0.003446
v -0.001732 -0.017613 -0.003446
v 0.005197 -0.063115 -0.006218
v 0.004734 -0.017613 -0.006218
f 127 129 133 
f 126 125 127 
f 125 126 128 
f 127 125 128 
f 127 124 129 
f 124 128 130 
f 128 126 130 
f 129 124 130 
f 124 127 131 
f 128 124 131 
f 127 128 131 
f 126 129 132 
f 130 126 132 
f 129 130 132 
f 126 127 133 
f 129 126 133 
o convex_11
v 0.005197 -0.010453 -0.003448
v 0.009585 -0.017382 -0.015224
v 0.006352 -0.013225 -0.015224
v 0.011202 -0.010453 -0.015224
v 0.011202 -0.017382 -0.003448
v 0.005197 -0.017382 -0.003448
v 0.011202 -0.010453 -0.003448
v 0.005197 -0.010453 -0.011298
v 0.011202 -0.017382 -0.015224
v 0.005197 -0.017382 -0.006681
v 0.006352 -0.010453 -0.015224
v 0.005197 -0.013225 -0.011298
f 143 141 145 
f 135 136 137 
f 135 138 139 
f 138 134 139 
f 137 134 140 
f 134 138 140 
f 138 137 140 
f 134 137 141 
f 139 134 141 
f 135 137 142 
f 137 138 142 
f 138 135 142 
f 136 135 143 
f 135 139 143 
f 139 141 143 
f 137 136 144 
f 136 141 144 
f 141 137 144 
f 141 136 145 
f 136 143 145 
o convex_12
v -0.006583 0.000172 -0.002984
v -0.019290 -0.010221 -0.037862
v -0.019290 0.000172 -0.037862
v -0.041461 -0.010221 -0.004142
v -0.006583 -0.010452 -0.003449
v -0.041461 0.000172 -0.004835
v -0.006583 0.000172 -0.027234
v -0.006583 -0.010220 -0.027234
v -0.040303 0.000172 -0.002988
v -0.040303 -0.010221 -0.002988
v -0.011205 -0.010452 -0.025848
v -0.041461 -0.010221 -0.004835
v -0.006583 -0.010220 -0.002984
v -0.018826 -0.010221 -0.037862
v -0.019751 -0.010221 -0.037398
v -0.018826 0.000172 -0.037862
v -0.019751 0.000172 -0.037398
v -0.006583 -0.010452 -0.025848
v -0.007508 -0.010220 -0.028159
v -0.011205 -0.010452 -0.003449
v -0.007508 0.000170 -0.028159
v -0.041461 0.000172 -0.004142
f 154 151 167 
f 146 148 151 
f 148 146 152 
f 146 150 152 
f 152 150 153 
f 146 151 154 
f 146 154 155 
f 154 149 155 
f 149 151 157 
f 156 149 157 
f 150 146 158 
f 146 155 158 
f 147 148 159 
f 156 147 159 
f 148 147 160 
f 147 156 160 
f 157 151 160 
f 156 157 160 
f 148 152 161 
f 159 148 161 
f 151 148 162 
f 148 160 162 
f 160 151 162 
f 153 150 163 
f 150 156 163 
f 156 159 163 
f 163 159 164 
f 152 153 164 
f 159 161 164 
f 153 163 164 
f 155 149 165 
f 149 156 165 
f 156 150 165 
f 150 158 165 
f 158 155 165 
f 161 152 166 
f 152 164 166 
f 164 161 166 
f 151 149 167 
f 149 154 167 
o convex_13
v -0.007276 0.010104 0.025426
v -0.007507 -0.010222 -0.002984
v -0.007507 0.000172 -0.002984
v -0.006583 -0.010222 -0.002984
v -0.007507 -0.010222 0.025192
v -0.006583 0.010104 0.025426
v -0.006583 0.010104 0.001407
v -0.006583 -0.010222 0.025426
v -0.007507 0.010104 0.003023
v -0.007507 0.010104 0.025192
v -0.006583 0.000172 -0.002984
v -0.006814 0.010104 0.001407
v -0.007276 -0.010222 0.025426
f 172 175 180 
f 169 170 171 
f 170 169 172 
f 169 171 172 
f 168 173 174 
f 173 171 174 
f 172 171 175 
f 173 168 175 
f 171 173 175 
f 170 172 176 
f 168 174 176 
f 172 168 177 
f 168 176 177 
f 176 172 177 
f 171 170 178 
f 170 174 178 
f 174 171 178 
f 174 170 179 
f 170 176 179 
f 176 174 179 
f 168 172 180 
f 175 168 180 
o convex_14
v -0.005659 0.000171 -0.014997
v -0.006583 -0.010452 -0.025850
v -0.006583 -0.010220 -0.027006
v -0.002425 -0.010452 -0.025850
v -0.006583 0.000171 -0.027006
v -0.006583 -0.010452 -0.014766
v -0.002425 0.000171 -0.019847
v -0.002425 -0.010220 -0.019847
v -0.002425 0.000171 -0.024926
v -0.006583 0.000171 -0.014766
v -0.005659 -0.010220 -0.014997
v -0.006351 0.000171 -0.027006
v -0.002425 -0.010452 -0.020309
v -0.005889 -0.010220 -0.014766
v -0.006351 -0.010220 -0.027006
f 192 184 195 
f 182 183 184 
f 183 182 185 
f 182 184 186 
f 185 182 186 
f 185 181 187 
f 187 181 188 
f 184 187 188 
f 185 187 189 
f 187 184 189 
f 181 185 190 
f 185 186 190 
f 188 181 191 
f 183 185 192 
f 189 184 192 
f 185 189 192 
f 186 184 193 
f 184 188 193 
f 191 186 193 
f 188 191 193 
f 181 190 194 
f 190 186 194 
f 191 181 194 
f 186 191 194 
f 184 183 195 
f 183 192 195 
o convex_15
v -0.002425 -0.010220 0.025426
v -0.006583 -0.010452 -0.014764
v -0.006583 0.000171 -0.014764
v -0.006583 0.000171 0.025426
v -0.002425 0.000171 -0.009449
v -0.006583 -0.010220 0.025426
v -0.002425 -0.010452 -0.008985
v -0.002425 0.000171 0.025426
v -0.005889 -0.010220 -0.014764
v -0.005889 0.000171 -0.014764
v -0.002425 -0.010220 -0.009449
v -0.006583 -0.010452 -0.003446
v -0.002425 -0.010452 -0.003442
f 201 207 208 
f 198 197 199 
f 198 199 200 
f 199 197 201 
f 196 199 201 
f 200 196 202 
f 199 196 203 
f 196 200 203 
f 200 199 203 
f 197 198 204 
f 202 197 204 
f 198 200 205 
f 204 198 205 
f 200 204 205 
f 200 202 206 
f 204 200 206 
f 202 204 206 
f 201 197 207 
f 197 202 207 
f 207 202 208 
f 196 201 208 
f 202 196 208 
o convex_16
v -0.004734 0.000172 -0.001136
v -0.005889 0.010104 0.004407
v -0.006583 0.010104 0.004407
v -0.002425 0.010104 -0.002060
v -0.002425 0.000172 -0.000212
v -0.006583 0.000172 0.004407
v -0.006583 0.010104 0.000943
v -0.006583 0.000172 0.000943
v -0.002425 0.010104 -0.000212
v -0.002425 0.000172 -0.002060
v -0.004043 0.010104 -0.001598
v -0.005889 0.000172 0.004407
v -0.003119 0.000172 -0.002060
v -0.006121 0.010104 0.000250
v -0.003119 0.010104 -0.002060
v -0.006121 0.000172 0.000250
v -0.004734 0.010104 -0.001136
f 222 219 225 
f 211 210 212 
f 210 211 214 
f 209 213 214 
f 214 211 215 
f 211 212 215 
f 209 214 216 
f 214 215 216 
f 212 210 217 
f 213 212 217 
f 210 213 217 
f 213 209 218 
f 212 213 218 
f 215 212 219 
f 213 210 220 
f 210 214 220 
f 214 213 220 
f 218 209 221 
f 212 218 221 
f 209 219 221 
f 216 215 222 
f 215 219 222 
f 219 212 223 
f 212 221 223 
f 221 219 223 
f 209 216 224 
f 222 209 224 
f 216 222 224 
f 219 209 225 
f 209 222 225 
o convex_17
v 0.040535 0.000172 -0.003215
v 0.018826 -0.010221 -0.037862
v 0.018826 0.000172 -0.037862
v 0.006583 0.000170 -0.003215
v 0.006583 -0.010452 -0.003449
v 0.041461 -0.010221 -0.004833
v 0.006583 0.000170 -0.027233
v 0.006583 -0.010452 -0.025849
v 0.041461 0.000172 -0.004833
v 0.040535 -0.010221 -0.003215
v 0.019751 -0.010221 -0.037397
v 0.019751 0.000172 -0.037397
v 0.007508 -0.010220 -0.028156
v 0.006583 -0.010220 -0.003215
v 0.011205 -0.010452 -0.025846
v 0.011205 -0.010452 -0.003449
v 0.007508 0.000170 -0.028156
v 0.041461 -0.010221 -0.004141
v 0.006583 -0.010220 -0.027233
v 0.041461 0.000172 -0.004141
v 0.019290 -0.010221 -0.037862
v 0.013052 0.000172 -0.003215
v 0.019290 0.000172 -0.037862
f 237 246 248 
f 230 229 232 
f 230 232 233 
f 228 226 234 
f 226 229 235 
f 234 231 236 
f 234 236 237 
f 228 234 237 
f 228 227 238 
f 227 233 238 
f 229 230 239 
f 235 229 239 
f 230 235 239 
f 230 233 240 
f 236 231 240 
f 235 230 241 
f 230 240 241 
f 240 231 241 
f 232 228 242 
f 228 238 242 
f 238 232 242 
f 231 234 243 
f 226 235 243 
f 235 241 243 
f 241 231 243 
f 233 232 244 
f 232 238 244 
f 238 233 244 
f 234 226 245 
f 226 243 245 
f 243 234 245 
f 227 228 246 
f 233 227 246 
f 237 236 246 
f 240 233 246 
f 236 240 246 
f 226 228 247 
f 229 226 247 
f 228 232 247 
f 232 229 247 
f 228 237 248 
f 246 228 248 
o convex_18
v 0.003811 -0.063115 -0.025851
v 0.007507 -0.017613 -0.021000
v 0.007276 -0.017613 -0.021000
v 0.003811 -0.017613 -0.025851
v 0.007507 -0.017613 -0.025851
v 0.007507 -0.063115 -0.021232
v 0.007507 -0.063115 -0.025851
v 0.003811 -0.063115 -0.023541
v 0.003811 -0.017613 -0.023541
v 0.006814 -0.063115 -0.021463
v 0.007276 -0.063115 -0.021232
f 258 254 259 
f 251 250 252 
f 249 252 253 
f 252 250 253 
f 253 250 254 
f 250 251 254 
f 249 253 255 
f 253 254 255 
f 254 249 255 
f 252 249 256 
f 249 254 256 
f 251 252 257 
f 256 251 257 
f 252 256 257 
f 251 256 258 
f 256 254 258 
f 254 251 259 
f 251 258 259 
o convex_19
v 0.007507 -0.063115 -0.025850
v 0.010971 -0.017613 -0.015226
v 0.009817 -0.017613 -0.015226
v 0.010971 -0.017613 -0.025850
v 0.011202 -0.063115 -0.015226
v 0.011202 -0.063115 -0.025850
v 0.007507 -0.017613 -0.025850
v 0.007507 -0.063115 -0.020769
v 0.007507 -0.017613 -0.020769
v 0.009817 -0.063115 -0.015226
v 0.011202 -0.017617 -0.015226
v 0.011202 -0.017617 -0.025850
v 0.009585 -0.017844 -0.015689
f 267 269 272 
f 262 261 263 
f 261 262 264 
f 260 263 265 
f 264 260 265 
f 262 263 266 
f 263 260 266 
f 260 264 267 
f 266 260 267 
f 266 267 268 
f 262 266 268 
f 264 262 269 
f 267 264 269 
f 263 261 270 
f 261 264 270 
f 264 265 270 
f 270 265 271 
f 265 263 271 
f 263 270 271 
f 268 267 272 
f 262 268 272 
f 269 262 272 
o convex_20
v -0.001732 -0.010453 -0.003446
v 0.004966 -0.017613 -0.006449
v 0.004966 -0.013225 -0.010837
v 0.005197 -0.010453 -0.003446
v -0.001732 -0.017613 -0.003446
v -0.001732 -0.010453 -0.008527
v 0.005197 -0.017613 -0.003446
v 0.005197 -0.010453 -0.010837
v -0.001732 -0.017613 -0.005064
v -0.001732 -0.013225 -0.008527
v 0.005197 -0.017613 -0.006449
v 0.005197 -0.013225 -0.010837
f 283 275 284 
f 276 273 277 
f 273 276 278 
f 277 273 278 
f 276 277 279 
f 277 274 279 
f 275 278 280 
f 278 276 280 
f 276 279 280 
f 275 274 281 
f 274 277 281 
f 277 278 281 
f 281 278 282 
f 278 275 282 
f 275 281 282 
f 274 275 283 
f 279 274 283 
f 280 279 283 
f 280 283 284 
f 275 280 284 
o convex_21
v -0.013050 0.000172 -0.013839
v -0.019979 0.010104 -0.005987
v -0.020211 0.010104 -0.005987
v -0.011895 0.010104 -0.015457
v -0.020211 0.000172 -0.015457
v -0.020211 0.010104 -0.015457
v -0.020211 0.000172 -0.005987
v -0.011895 0.000172 -0.015457
v -0.019286 0.000172 -0.006680
v -0.013050 0.010104 -0.013839
v -0.019286 0.010104 -0.006680
v -0.011895 0.010104 -0.015225
v -0.011895 0.000172 -0.015225
v -0.016053 0.000172 -0.010376
f 294 295 298 
f 287 286 288 
f 289 287 290 
f 287 288 290 
f 288 289 290 
f 286 287 291 
f 289 285 291 
f 287 289 291 
f 285 289 292 
f 289 288 292 
f 286 291 293 
f 291 285 293 
f 288 286 294 
f 286 293 295 
f 294 286 295 
f 292 288 296 
f 288 294 296 
f 294 285 296 
f 285 292 297 
f 296 285 297 
f 292 296 297 
f 293 285 298 
f 285 294 298 
f 295 293 298 
o convex_22
v 0.008893 -0.063115 -0.010838
v 0.011202 -0.017386 -0.010145
v 0.011202 -0.017386 -0.015226
v 0.008662 -0.017386 -0.010145
v 0.011202 -0.063115 -0.010145
v 0.009817 -0.063115 -0.015226
v 0.011202 -0.063115 -0.015226
v 0.009817 -0.017386 -0.015226
v 0.008893 -0.063115 -0.010145
v 0.008662 -0.017615 -0.010607
f 307 302 308 
f 300 301 302 
f 301 300 303 
f 300 302 303 
f 303 299 304 
f 303 304 305 
f 301 303 305 
f 304 301 305 
f 302 301 306 
f 301 304 306 
f 299 303 307 
f 303 302 307 
f 304 299 308 
f 302 306 308 
f 306 304 308 
f 299 307 308 
o convex_23
v 0.008431 -0.063115 -0.009913
v 0.011202 -0.017386 -0.003446
v 0.011202 -0.017386 -0.010145
v 0.005197 -0.017391 -0.003446
v 0.011202 -0.063115 -0.003446
v 0.005197 -0.063115 -0.003446
v 0.005197 -0.017391 -0.006449
v 0.011202 -0.063115 -0.010145
v 0.008662 -0.017391 -0.010145
v 0.005197 -0.063115 -0.006449
v 0.008662 -0.063115 -0.010145
v 0.008200 -0.017391 -0.009682
f 319 309 320 
f 310 311 312 
f 311 310 313 
f 310 312 313 
f 309 313 314 
f 313 312 314 
f 312 311 315 
f 314 312 315 
f 313 309 316 
f 311 313 316 
f 311 316 317 
f 309 314 318 
f 314 315 318 
f 316 309 319 
f 317 316 319 
f 317 319 320 
f 315 311 320 
f 311 317 320 
f 309 318 320 
f 318 315 320 
o convex_24
v -0.019058 0.000172 0.019880
v -0.040306 -0.010222 -0.002984
v -0.040306 -0.010222 -0.002753
v -0.007510 -0.010222 -0.002984
v -0.007510 -0.010222 0.025195
v -0.007507 0.000172 -0.002984
v -0.040306 0.000172 -0.002984
v -0.007507 0.000172 0.025195
v -0.021829 -0.010222 0.018495
v -0.022985 0.000172 0.017339
v -0.040306 0.000172 -0.002753
v -0.022985 -0.010222 0.017339
v -0.010743 -0.010222 0.023808
v -0.021829 0.000172 0.018495
v -0.007738 0.000172 0.025195
v -0.019058 -0.010222 0.019880
v -0.038919 0.000172 -0.001133
v -0.007738 -0.010222 0.025195
v -0.014669 0.000172 0.021960
v -0.038919 -0.010222 -0.001133
f 332 337 340 
f 323 322 324 
f 323 324 325 
f 324 322 326 
f 325 324 326 
f 322 323 327 
f 326 322 327 
f 321 326 327 
f 326 321 328 
f 325 326 328 
f 323 325 329 
f 321 327 330 
f 327 323 331 
f 330 327 331 
f 323 329 332 
f 329 330 332 
f 329 325 333 
f 329 321 334 
f 321 330 334 
f 330 329 334 
f 328 321 335 
f 325 328 335 
f 321 329 336 
f 329 333 336 
f 331 323 337 
f 330 331 337 
f 332 330 337 
f 333 325 338 
f 325 335 338 
f 335 333 338 
f 335 321 339 
f 333 335 339 
f 321 336 339 
f 336 333 339 
f 323 332 340 
f 337 323 340 
o convex_25
v -0.010743 0.010104 0.023808
v -0.040306 0.000172 -0.002984
v -0.040306 0.000172 -0.002753
v -0.007507 0.000172 0.022884
v -0.019980 0.010104 -0.002984
v -0.040306 0.010104 -0.002753
v -0.019980 0.000172 -0.002984
v -0.021829 0.000172 0.018495
v -0.021829 0.010104 0.018495
v -0.007507 0.010104 0.022884
v -0.007738 0.000172 0.025195
v -0.007507 0.010104 0.025195
v -0.022985 0.000172 0.017339
v -0.040306 0.010104 -0.002984
v -0.018134 0.000172 0.000715
v -0.022985 0.010104 0.017339
v -0.018134 0.010104 0.000715
v -0.019058 0.000172 0.019880
v -0.019058 0.010104 0.019880
v -0.007507 0.000172 0.025195
v -0.038919 0.000172 -0.001133
v -0.007738 0.010104 0.025195
v -0.015360 0.000172 0.006488
v -0.014669 0.000172 0.021960
f 359 358 364 
f 343 342 344 
f 342 343 346 
f 341 345 346 
f 344 342 347 
f 342 345 347 
f 343 344 348 
f 341 346 349 
f 345 341 350 
f 348 344 351 
f 350 341 352 
f 344 350 352 
f 343 348 353 
f 348 349 353 
f 345 342 354 
f 342 346 354 
f 346 345 354 
f 344 347 355 
f 347 345 355 
f 349 346 356 
f 353 349 356 
f 345 350 357 
f 355 345 357 
f 349 348 358 
f 348 351 358 
f 341 349 359 
f 349 358 359 
f 351 344 360 
f 344 352 360 
f 352 351 360 
f 346 343 361 
f 343 353 361 
f 356 346 361 
f 353 356 361 
f 341 351 362 
f 352 341 362 
f 351 352 362 
f 350 344 363 
f 344 355 363 
f 357 350 363 
f 355 357 363 
f 351 341 364 
f 358 351 364 
f 341 359 364 
o convex_26
v -0.005659 0.000172 0.010412
v -0.002425 0.010104 0.012260
v -0.002657 0.010104 0.012260
v -0.005890 0.010104 0.004407
v -0.002425 0.000172 0.010412
v -0.006583 0.010104 0.009026
v -0.006583 0.000172 0.004407
v -0.002425 0.000172 0.012260
v -0.002425 0.010104 0.010412
v -0.006583 0.000172 0.009026
v -0.005890 0.000172 0.004407
v -0.006583 0.010104 0.004407
v -0.004504 0.010104 0.011336
v -0.003811 0.000172 0.011798
v -0.005659 0.010104 0.010412
v -0.003349 0.010104 0.012029
v -0.006351 0.010104 0.009488
f 379 370 381 
f 367 366 368 
f 367 368 370 
f 369 365 371 
f 366 367 372 
f 365 369 372 
f 369 366 372 
f 368 366 373 
f 369 368 373 
f 366 369 373 
f 370 371 374 
f 371 365 374 
f 368 369 375 
f 371 368 375 
f 369 371 375 
f 370 368 376 
f 368 371 376 
f 371 370 376 
f 367 370 377 
f 365 372 378 
f 372 367 378 
f 377 365 378 
f 365 377 379 
f 377 370 379 
f 367 377 380 
f 378 367 380 
f 377 378 380 
f 374 365 381 
f 370 374 381 
f 365 379 381 
o convex_27
v 0.013050 0.000172 -0.013839
v 0.020211 0.010104 -0.005987
v 0.019979 0.010104 -0.005987
v 0.020211 0.010104 -0.015457
v 0.011895 0.010104 -0.015457
v 0.020211 0.000172 -0.015457
v 0.020211 0.000172 -0.005987
v 0.011895 0.000172 -0.015457
v 0.019286 0.000172 -0.006680
v 0.013050 0.010104 -0.013839
v 0.019286 0.010104 -0.006680
v 0.011895 0.010104 -0.015225
v 0.011895 0.000172 -0.015225
v 0.016053 0.010104 -0.010376
f 392 391 395 
f 384 383 385 
f 384 385 386 
f 385 383 387 
f 386 385 387 
f 383 384 388 
f 387 383 388 
f 382 387 388 
f 387 382 389 
f 386 387 389 
f 382 388 390 
f 388 384 390 
f 384 386 391 
f 390 384 392 
f 384 391 392 
f 386 389 393 
f 382 391 393 
f 391 386 393 
f 389 382 394 
f 382 393 394 
f 393 389 394 
f 382 390 395 
f 391 382 395 
f 390 392 395 
o convex_28
v 0.019748 0.010104 -0.037398
v 0.013975 0.000172 -0.033702
v 0.013975 0.000172 -0.028393
v 0.023443 0.000172 -0.028393
v 0.013975 0.010104 -0.028393
v 0.023443 0.010104 -0.028393
v 0.019285 0.000172 -0.037859
v 0.013975 0.010104 -0.033702
v 0.023443 0.000172 -0.031858
v 0.023443 0.010104 -0.031858
v 0.018824 0.010104 -0.037859
v 0.018824 0.000172 -0.037859
v 0.019748 0.000172 -0.037398
v 0.019285 0.010104 -0.037859
f 406 396 409 
f 398 397 399 
f 397 398 400 
f 398 399 400 
f 396 400 401 
f 400 399 401 
f 399 397 402 
f 400 396 403 
f 397 400 403 
f 401 399 404 
f 399 402 404 
f 396 401 405 
f 404 396 405 
f 401 404 405 
f 403 396 406 
f 397 403 406 
f 402 397 407 
f 397 406 407 
f 406 402 407 
f 402 396 408 
f 396 404 408 
f 404 402 408 
f 396 402 409 
f 402 406 409 
o convex_29
v 0.005659 0.000171 -0.014996
v 0.003811 -0.010452 -0.025851
v 0.003811 -0.009989 -0.025851
v 0.006583 0.000171 -0.027006
v 0.006583 -0.010452 -0.014533
v 0.003811 0.000171 -0.018923
v 0.006583 -0.010220 -0.027006
v 0.003811 -0.010220 -0.018923
v 0.003811 0.000171 -0.024927
v 0.006583 0.000171 -0.014533
v 0.005889 -0.010220 -0.014533
v 0.005889 0.000171 -0.026774
v 0.006583 -0.010452 -0.025851
v 0.003811 -0.010452 -0.019616
v 0.006351 -0.010220 -0.027006
v 0.005889 0.000171 -0.014533
f 410 420 425 
f 412 411 415 
f 410 413 415 
f 413 414 416 
f 415 411 417 
f 410 415 417 
f 412 415 418 
f 415 413 418 
f 413 410 419 
f 414 413 419 
f 414 419 420 
f 410 417 420 
f 412 418 421 
f 418 413 421 
f 414 411 422 
f 411 416 422 
f 416 414 422 
f 411 414 423 
f 417 411 423 
f 414 420 423 
f 420 417 423 
f 411 412 424 
f 416 411 424 
f 413 416 424 
f 412 421 424 
f 421 413 424 
f 419 410 425 
f 420 419 425 
o convex_30
v 0.003349 0.010104 -0.001829
v -0.002425 0.000172 -0.002291
v -0.002425 0.000172 -0.000444
v -0.002425 0.010104 -0.002291
v 0.003117 0.000172 -0.002060
v 0.003349 0.010104 0.000019
v 0.003349 0.000172 0.000019
v -0.002425 0.010104 -0.000444
v 0.001732 0.010104 -0.002522
v 0.001732 0.000172 -0.002522
v -0.001501 0.010104 -0.002522
v -0.001501 0.000172 -0.002522
v 0.003349 0.000172 -0.001829
v 0.002887 0.000172 0.000019
v 0.002887 0.010104 0.000019
v 0.003117 0.010104 -0.002060
f 430 434 441 
f 427 428 429 
f 428 427 430 
f 426 429 431 
f 428 430 432 
f 426 431 432 
f 429 428 433 
f 431 429 433 
f 429 426 434 
f 434 430 435 
f 430 427 435 
f 427 429 436 
f 429 434 436 
f 434 435 436 
f 435 427 437 
f 427 436 437 
f 436 435 437 
f 430 426 438 
f 426 432 438 
f 432 430 438 
f 428 432 439 
f 432 431 439 
f 433 428 439 
f 433 439 440 
f 431 433 440 
f 439 431 440 
f 426 430 441 
f 434 426 441 
o convex_31
v 0.003580 0.000172 -0.001829
v 0.006583 0.010104 0.004176
v 0.005890 0.010104 0.004176
v 0.006583 0.000172 0.004176
v 0.006583 0.010104 0.000943
v 0.003349 0.010104 0.000250
v 0.003349 0.000172 0.000250
v 0.006583 0.000172 0.000943
v 0.003349 0.010104 -0.001829
v 0.005659 0.000172 0.003945
v 0.004735 0.010104 -0.001136
v 0.004735 0.000172 -0.001136
v 0.006121 0.000172 0.000250
v 0.003349 0.000172 -0.001829
v 0.006121 0.010104 0.000250
v 0.005659 0.010104 0.003945
v 0.004042 0.010104 -0.001598
f 452 453 458 
f 443 444 445 
f 444 443 446 
f 443 445 446 
f 444 446 447 
f 442 445 448 
f 445 442 449 
f 446 445 449 
f 447 446 450 
f 448 447 450 
f 445 444 451 
f 448 445 451 
f 447 448 451 
f 450 446 452 
f 449 442 453 
f 453 452 454 
f 446 449 454 
f 449 453 454 
f 442 448 455 
f 450 442 455 
f 448 450 455 
f 452 446 456 
f 454 452 456 
f 446 454 456 
f 444 447 457 
f 451 444 457 
f 447 451 457 
f 442 450 458 
f 450 452 458 
f 453 442 458 
o convex_32
v 0.002887 0.010104 0.012260
v -0.002425 0.000172 0.010413
v -0.002425 0.000172 0.012260
v 0.004042 0.000172 0.009489
v -0.002425 0.010104 0.010413
v 0.004042 0.010104 0.009489
v 0.003811 0.000172 0.011798
v -0.001963 0.010104 0.012491
v 0.000808 0.000172 0.012722
v 0.004042 0.010104 0.011567
v 0.000808 0.010104 0.012722
v -0.000577 0.000172 0.012722
v 0.003580 0.000172 0.009489
v -0.002425 0.010104 0.012260
v 0.002887 0.000172 0.012260
v 0.004042 0.000172 0.011567
v 0.003580 0.010104 0.009489
v -0.000577 0.010104 0.012722
v -0.001963 0.000172 0.012491
f 470 466 477 
f 461 460 462 
f 460 461 463 
f 463 459 464 
f 461 462 465 
f 459 463 466 
f 461 465 467 
f 464 459 468 
f 462 464 468 
f 459 465 468 
f 459 466 469 
f 467 459 469 
f 467 469 470 
f 461 467 470 
f 462 460 471 
f 460 463 471 
f 464 462 471 
f 463 461 472 
f 461 466 472 
f 466 463 472 
f 465 459 473 
f 459 467 473 
f 467 465 473 
f 465 462 474 
f 462 468 474 
f 468 465 474 
f 463 464 475 
f 471 463 475 
f 464 471 475 
f 469 466 476 
f 470 469 476 
f 466 470 476 
f 466 461 477 
f 461 470 477 
o convex_33
v 0.006583 0.000172 0.004176
v 0.004273 0.010104 0.011567
v 0.004042 0.010104 0.011567
v 0.004273 0.000172 0.011567
v 0.006583 0.010104 0.009026
v 0.005890 0.010104 0.004176
v 0.004042 0.000172 0.009257
v 0.006583 0.000172 0.009026
v 0.004042 0.010104 0.009257
v 0.005890 0.000172 0.004176
v 0.006583 0.010104 0.004176
v 0.005197 0.010104 0.010874
v 0.005197 0.000172 0.010874
v 0.004042 0.000172 0.011567
v 0.006352 0.010104 0.009487
v 0.006352 0.000172 0.009487
f 485 492 493 
f 479 480 481 
f 480 479 482 
f 480 482 483 
f 478 481 484 
f 481 478 485 
f 478 482 485 
f 480 483 486 
f 484 480 486 
f 483 484 486 
f 483 478 487 
f 478 484 487 
f 484 483 487 
f 482 478 488 
f 478 483 488 
f 483 482 488 
f 479 481 489 
f 482 479 489 
f 481 485 490 
f 489 481 490 
f 481 480 491 
f 480 484 491 
f 484 481 491 
f 485 482 492 
f 482 489 492 
f 489 490 492 
f 492 490 493 
f 490 485 493 
o convex_34
v 0.006814 0.010104 0.008799
v 0.006583 -0.010222 -0.003215
v 0.006583 0.000172 -0.003215
v 0.007738 -0.010222 -0.003215
v 0.006583 -0.010222 0.021961
v 0.007738 0.000172 0.021961
v 0.007507 0.010104 0.003254
v 0.007738 -0.010222 0.021961
v 0.006583 0.000172 0.021961
v 0.007738 0.000172 -0.003215
v 0.006583 0.010104 0.001408
v 0.007507 0.010104 0.006948
v 0.006583 0.010104 0.008799
v 0.007045 0.010104 0.001866
f 503 504 507 
f 495 496 497 
f 496 495 498 
f 495 497 498 
f 498 497 501 
f 497 499 501 
f 499 498 501 
f 496 498 502 
f 499 494 502 
f 498 499 502 
f 497 496 503 
f 499 497 503 
f 500 499 503 
f 494 500 504 
f 496 502 504 
f 503 496 504 
f 494 499 505 
f 500 494 505 
f 499 500 505 
f 502 494 506 
f 494 504 506 
f 504 502 506 
f 500 503 507 
f 504 500 507 
o convex_35
v 0.007738 0.000172 0.021961
v 0.007276 0.010104 0.025426
v 0.006583 0.010104 0.025426
v 0.007276 -0.010222 0.025426
v 0.006583 -0.010222 0.021961
v 0.006583 -0.010222 0.025426
v 0.007738 -0.010222 0.025194
v 0.007738 0.010104 0.022886
v 0.006583 0.000172 0.021961
v 0.007738 -0.010222 0.021961
v 0.007738 0.010104 0.025194
v 0.007507 0.010104 0.022886
v 0.006583 0.010104 0.024964
f 510 519 520 
f 509 510 511 
f 510 512 513 
f 511 510 513 
f 512 511 513 
f 509 511 514 
f 511 512 514 
f 510 509 515 
f 514 508 515 
f 508 512 516 
f 512 510 516 
f 515 508 516 
f 512 508 517 
f 508 514 517 
f 514 512 517 
f 509 514 518 
f 515 509 518 
f 514 515 518 
f 510 515 519 
f 515 516 519 
f 519 516 520 
f 516 510 520 
o convex_36
v 0.021828 0.000172 0.018496
v 0.007738 -0.010222 -0.003215
v 0.007738 -0.010222 0.024964
v 0.040306 -0.010222 -0.003215
v 0.007738 0.000172 -0.003215
v 0.040306 0.000172 -0.003215
v 0.007738 0.000172 0.024964
v 0.021828 -0.010222 0.018496
v 0.040306 -0.010222 -0.002752
v 0.038919 0.000172 -0.001135
v 0.010741 -0.010222 0.023806
v 0.022986 -0.010222 0.017340
v 0.008200 0.000172 0.024964
v 0.022986 0.000172 0.017340
v 0.019058 0.000172 0.019880
v 0.019058 -0.010222 0.019880
v 0.040306 0.000172 -0.002752
v 0.008200 -0.010222 0.024964
v 0.010741 0.000172 0.023806
f 535 533 539 
f 523 522 524 
f 522 523 525 
f 524 522 525 
f 525 521 526 
f 524 525 526 
f 521 525 527 
f 525 523 527 
f 523 524 528 
f 528 524 529 
f 524 526 529 
f 526 521 530 
f 523 528 531 
f 521 528 532 
f 528 529 532 
f 529 530 532 
f 521 527 533 
f 527 523 533 
f 530 521 534 
f 521 532 534 
f 532 530 534 
f 528 521 535 
f 521 533 535 
f 531 528 536 
f 528 535 536 
f 535 531 536 
f 529 526 537 
f 526 530 537 
f 530 529 537 
f 523 531 538 
f 533 523 538 
f 531 533 538 
f 533 531 539 
f 531 535 539 
o convex_37
v 0.010744 0.010104 0.023808
v 0.020212 0.000172 -0.003215
v 0.019979 0.000172 -0.002981
v 0.022986 0.000172 0.017340
v 0.040306 0.010104 -0.003215
v 0.020212 0.010104 -0.003215
v 0.007738 0.000172 0.022421
v 0.040306 0.000172 -0.003215
v 0.021828 0.010104 0.018496
v 0.007738 0.010104 0.022421
v 0.008203 0.000172 0.024964
v 0.040306 0.010104 -0.002752
v 0.021828 0.000172 0.018496
v 0.007738 0.010104 0.024964
v 0.040306 0.000172 -0.002752
v 0.018134 0.010104 0.000715
v 0.022986 0.010104 0.017340
v 0.018134 0.000172 0.000715
v 0.019058 0.000172 0.019880
v 0.007738 0.000172 0.024964
v 0.019058 0.010104 0.019880
v 0.008203 0.010104 0.024964
v 0.019979 0.010104 -0.002981
v 0.010744 0.000172 0.023808
v 0.015360 0.010104 0.006489
v 0.038919 0.000172 -0.001135
v 0.015360 0.000172 0.006489
f 564 557 566 
f 542 541 543 
f 544 541 545 
f 541 542 545 
f 540 544 545 
f 542 543 546 
f 543 541 547 
f 541 544 547 
f 544 540 548 
f 540 545 549 
f 546 543 550 
f 547 544 551 
f 544 548 551 
f 543 548 552 
f 550 543 552 
f 540 549 553 
f 549 546 553 
f 543 547 554 
f 547 551 554 
f 549 545 555 
f 548 543 556 
f 551 548 556 
f 542 546 557 
f 555 542 557 
f 552 548 558 
f 550 552 558 
f 546 550 559 
f 553 546 559 
f 550 553 559 
f 548 540 560 
f 540 558 560 
f 558 548 560 
f 550 540 561 
f 540 553 561 
f 553 550 561 
f 545 542 562 
f 542 555 562 
f 555 545 562 
f 540 550 563 
f 558 540 563 
f 550 558 563 
f 546 549 564 
f 549 555 564 
f 555 557 564 
f 543 554 565 
f 554 551 565 
f 556 543 565 
f 551 556 565 
f 557 546 566 
f 546 564 566 
o convex_38
v -0.040304 0.010104 -0.002984
v -0.029912 0.000172 -0.021924
v -0.030374 0.000172 -0.021461
v -0.020213 0.000172 -0.002984
v -0.020211 0.010104 -0.015456
v -0.041461 0.000172 -0.004141
v -0.029912 0.010104 -0.021924
v -0.020211 0.010104 -0.002984
v -0.023445 0.000172 -0.021924
v -0.041461 0.010104 -0.004834
v -0.020213 0.000172 -0.015456
v -0.025523 0.010104 -0.021924
v -0.040304 0.000172 -0.002984
v -0.041461 0.000172 -0.004834
v -0.023445 0.004793 -0.021924
v -0.023445 0.010104 -0.020538
v -0.030374 0.010104 -0.021461
v -0.041461 0.010104 -0.004141
f 576 572 584 
f 569 568 570 
f 569 570 572 
f 568 569 573 
f 567 571 573 
f 567 570 574 
f 571 567 574 
f 570 571 574 
f 570 568 575 
f 568 573 575 
f 567 573 576 
f 571 570 577 
f 570 575 577 
f 575 571 577 
f 573 571 578 
f 575 573 578 
f 570 567 579 
f 567 572 579 
f 572 570 579 
f 569 572 580 
f 572 576 580 
f 576 569 580 
f 571 575 581 
f 575 578 581 
f 581 578 582 
f 578 571 582 
f 571 581 582 
f 573 569 583 
f 569 576 583 
f 576 573 583 
f 572 567 584 
f 567 576 584 
o convex_39
v 0.000346 0.000170 0.014570
v 0.003349 -0.010452 -0.009448
v 0.003349 -0.010220 -0.010142
v -0.002425 -0.010452 -0.008756
v -0.002425 0.000170 -0.009220
v -0.002425 -0.010220 0.014570
v 0.003580 0.000172 0.014565
v 0.003580 0.000172 -0.010142
v 0.003580 -0.010220 0.014565
v -0.002425 0.000170 0.014570
v 0.003580 -0.010452 -0.003444
v -0.002425 -0.010220 -0.009220
v 0.003580 -0.010220 -0.010142
v -0.002425 -0.010452 -0.003444
v 0.003349 0.000172 -0.010142
f 594 591 599 
f 587 586 588 
f 589 588 590 
f 592 591 593 
f 585 590 593 
f 591 585 593 
f 590 585 594 
f 589 590 594 
f 585 591 594 
f 588 586 595 
f 592 593 595 
f 593 590 595 
f 587 588 596 
f 588 589 596 
f 589 587 596 
f 586 587 597 
f 587 592 597 
f 595 586 597 
f 592 595 597 
f 590 588 598 
f 588 595 598 
f 595 590 598 
f 587 589 599 
f 592 587 599 
f 591 592 599 
f 589 594 599 
o convex_40
v 0.003580 0.000172 0.022191
v 0.006351 -0.010452 -0.014533
v 0.006583 -0.010452 -0.014533
v 0.003580 -0.010221 0.025426
v 0.006583 0.000172 0.025426
v 0.003580 0.000170 -0.010141
v 0.006583 0.000172 -0.014533
v 0.006583 -0.010221 0.025426
v 0.003580 -0.010452 -0.009448
v 0.003580 0.000172 0.025426
v 0.005659 -0.010220 -0.014295
v 0.005659 0.000170 -0.014295
v 0.003580 -0.010220 -0.010141
v 0.006583 -0.010452 -0.003440
v 0.003580 -0.010452 -0.003444
v 0.005890 0.000170 -0.014533
f 610 611 615 
f 603 600 605 
f 605 600 606 
f 602 601 606 
f 600 604 606 
f 604 602 606 
f 604 603 607 
f 602 604 607 
f 601 602 608 
f 603 605 608 
f 600 603 609 
f 604 600 609 
f 603 604 609 
f 601 608 610 
f 605 606 611 
f 610 605 611 
f 608 605 612 
f 605 610 612 
f 610 608 612 
f 602 607 613 
f 607 603 613 
f 608 602 613 
f 608 613 614 
f 603 608 614 
f 613 603 614 
f 606 601 615 
f 601 610 615 
f 611 606 615 
o convex_41
v 0.003580 0.000172 0.025426
v -0.002425 -0.010222 0.022192
v -0.002425 -0.010222 0.025426
v -0.002425 0.000172 0.022192
v 0.003580 -0.010222 0.022192
v 0.003580 -0.010222 0.025426
v -0.002425 0.000172 0.025426
v 0.003580 0.000172 0.022192
f 620 619 623 
f 617 618 619 
f 618 617 620 
f 617 619 620 
f 616 618 621 
f 620 616 621 
f 618 620 621 
f 618 616 622 
f 619 618 622 
f 616 619 622 
f 619 616 623 
f 616 620 623 
o convex_42
v 0.007276 0.010104 -0.024236
v 0.013743 0.000172 -0.033473
v 0.013974 0.000172 -0.033473
v 0.011663 0.000172 -0.015457
v 0.013743 0.010104 -0.015457
v 0.013974 0.010104 -0.033473
v 0.007507 0.000172 -0.027698
v 0.007276 0.010104 -0.020540
v 0.013743 0.000172 -0.015457
v 0.007276 0.000172 -0.020540
v 0.007738 0.010104 -0.028158
v 0.011663 0.010104 -0.015457
v 0.013974 0.000172 -0.028389
v 0.009125 0.000172 -0.029544
v 0.012357 0.010104 -0.032316
v 0.013974 0.010104 -0.028391
v 0.007276 0.000172 -0.024236
v 0.007507 0.010104 -0.027698
v 0.009125 0.010104 -0.029544
v 0.008432 0.000172 -0.019153
v 0.007738 0.000172 -0.028158
v 0.013743 0.010104 -0.033473
v 0.011432 0.010104 -0.015690
f 631 643 646 
f 625 626 627 
f 626 625 629 
f 624 628 629 
f 625 627 630 
f 628 624 631 
f 627 626 632 
f 628 627 632 
f 630 627 633 
f 631 624 633 
f 624 629 634 
f 627 628 635 
f 628 631 635 
f 626 629 636 
f 632 626 636 
f 628 632 636 
f 625 630 637 
f 634 629 638 
f 625 637 638 
f 629 628 639 
f 636 629 639 
f 628 636 639 
f 624 630 640 
f 633 624 640 
f 630 633 640 
f 630 624 641 
f 624 634 641 
f 634 630 641 
f 637 634 642 
f 634 638 642 
f 638 637 642 
f 633 627 643 
f 631 633 643 
f 630 634 644 
f 637 630 644 
f 634 637 644 
f 629 625 645 
f 625 638 645 
f 638 629 645 
f 627 635 646 
f 635 631 646 
f 643 627 646 
o convex_43
v 0.041461 0.010104 -0.004140
v 0.023446 0.000172 -0.021924
v 0.020213 0.000172 -0.015456
v 0.020213 0.010104 -0.015456
v 0.020213 0.000172 -0.003215
v 0.041461 0.000172 -0.004142
v 0.029912 0.010104 -0.021924
v 0.020213 0.010104 -0.003215
v 0.030374 0.000172 -0.021461
v 0.040535 0.000172 -0.003215
v 0.025523 0.010104 -0.021924
v 0.040535 0.010104 -0.003215
v 0.041461 0.010104 -0.004832
v 0.041461 0.000172 -0.004834
v 0.023446 0.004793 -0.021924
v 0.023446 0.010104 -0.020536
v 0.029912 0.000172 -0.021924
v 0.030374 0.010104 -0.021461
f 659 660 664 
f 648 649 650 
f 649 648 651 
f 650 649 651 
f 651 648 652 
f 650 647 653 
f 647 650 654 
f 650 651 654 
f 652 648 655 
f 652 647 656 
f 651 652 656 
f 654 651 656 
f 653 648 657 
f 650 653 657 
f 647 654 658 
f 656 647 658 
f 654 656 658 
f 647 652 659 
f 653 647 659 
f 652 655 660 
f 659 652 660 
f 648 650 661 
f 657 648 661 
f 657 661 662 
f 650 657 662 
f 661 650 662 
f 648 653 663 
f 655 648 663 
f 653 655 663 
f 655 653 664 
f 653 659 664 
f 660 655 664 
o convex_44
v -0.023907 0.000172 -0.031163
v -0.025524 0.010104 -0.021924
v -0.029910 0.010104 -0.021924
v -0.023444 0.010104 -0.031394
v -0.023444 0.000172 -0.021924
v -0.029910 0.000172 -0.021924
v -0.023444 0.010104 -0.023311
v -0.023444 0.000172 -0.031394
v -0.029449 0.010104 -0.022850
v -0.023907 0.010104 -0.031163
v -0.029910 0.000172 -0.022156
v -0.023444 0.004562 -0.021924
f 669 671 676 
f 667 666 668 
f 666 667 669 
f 665 669 670 
f 669 667 670 
f 668 666 671 
f 669 668 671 
f 665 668 672 
f 669 665 672 
f 668 669 672 
f 667 668 673 
f 668 665 674 
f 673 668 674 
f 665 673 674 
f 665 670 675 
f 670 667 675 
f 667 673 675 
f 673 665 675 
f 666 669 676 
f 671 666 676 
o convex_45
v -0.019748 0.000172 -0.037398
v -0.008200 0.010104 -0.028394
v -0.011203 0.009180 -0.028393
v -0.019286 0.010104 -0.037859
v -0.023444 0.010104 -0.028393
v -0.008200 0.000172 -0.028394
v -0.023444 0.000172 -0.028393
v -0.023444 0.010104 -0.031858
v -0.018824 0.000172 -0.037859
v -0.023444 0.000172 -0.031858
v -0.009125 0.010104 -0.029548
v -0.018824 0.010104 -0.037859
v -0.009125 0.000172 -0.029548
v -0.019748 0.010104 -0.037398
v -0.008200 0.010104 -0.028624
v -0.019286 0.000172 -0.037859
v -0.008200 0.000172 -0.028624
f 689 691 693 
f 679 678 681 
f 678 680 681 
f 678 679 682 
f 679 681 683 
f 682 679 683 
f 677 682 683 
f 681 680 684 
f 683 681 684 
f 682 677 685 
f 677 683 686 
f 684 677 686 
f 683 684 686 
f 680 678 687 
f 687 685 688 
f 685 680 688 
f 680 687 688 
f 682 685 689 
f 685 687 689 
f 680 677 690 
f 677 684 690 
f 684 680 690 
f 678 682 691 
f 687 678 691 
f 689 687 691 
f 677 680 692 
f 680 685 692 
f 685 677 692 
f 682 689 693 
f 691 682 693 
o convex_46
v 0.023906 0.000172 -0.031163
v 0.029912 0.010104 -0.021924
v 0.025523 0.010104 -0.021924
v 0.023675 0.010104 -0.031394
v 0.023444 0.000172 -0.021924
v 0.029912 0.000172 -0.022156
v 0.023444 0.010104 -0.023311
v 0.023444 0.000172 -0.031394
v 0.029912 0.010104 -0.022156
v 0.023444 0.010104 -0.031394
v 0.029912 0.000172 -0.021924
v 0.023444 0.004562 -0.021924
v 0.023906 0.010104 -0.031163
f 702 694 706 
f 696 695 697 
f 695 696 698 
f 698 694 699 
f 696 697 700 
f 698 700 701 
f 697 694 701 
f 694 698 701 
f 697 695 702 
f 695 699 702 
f 699 694 702 
f 700 697 703 
f 701 700 703 
f 697 701 703 
f 695 698 704 
f 699 695 704 
f 698 699 704 
f 698 696 705 
f 696 700 705 
f 700 698 705 
f 694 697 706 
f 697 702 706 
